<?xml version="1.0" encoding="UTF-8" standalone="no"?>
<!-- Created with Inkscape (http://www.inkscape.org/) -->

<svg
   width="210mm"
   height="297mm"
   viewBox="0 0 210 297"
   version="1.1"
   id="svg5"
   xml:space="preserve"
   inkscape:version="1.2.2 (732a01da63, 2022-12-09)"
   sodipodi:docname="kresba3.svg"
   xmlns:inkscape="http://www.inkscape.org/namespaces/inkscape"
   xmlns:sodipodi="http://sodipodi.sourceforge.net/DTD/sodipodi-0.dtd"
   xmlns:xlink="http://www.w3.org/1999/xlink"
   xmlns="http://www.w3.org/2000/svg"
   xmlns:svg="http://www.w3.org/2000/svg"><sodipodi:namedview
     id="namedview7"
     pagecolor="#ffffff"
     bordercolor="#000000"
     borderopacity="0.25"
     inkscape:showpageshadow="2"
     inkscape:pageopacity="0.0"
     inkscape:pagecheckerboard="0"
     inkscape:deskcolor="#d1d1d1"
     inkscape:document-units="mm"
     showgrid="false"
     inkscape:lockguides="false"
     inkscape:zoom="1.4503086"
     inkscape:cx="305.10747"
     inkscape:cy="607.80166"
     inkscape:window-width="1920"
     inkscape:window-height="1001"
     inkscape:window-x="-9"
     inkscape:window-y="-9"
     inkscape:window-maximized="1"
     inkscape:current-layer="layer1" /><defs
     id="defs2"><linearGradient
       inkscape:collect="always"
       id="linearGradient5454"><stop
         style="stop-color:#000000;stop-opacity:1;"
         offset="0.21374045"
         id="stop5450" /><stop
         style="stop-color:#d53131;stop-opacity:0.60924369;"
         offset="1"
         id="stop5452" /></linearGradient><linearGradient
       inkscape:collect="always"
       id="linearGradient4680"><stop
         style="stop-color:#000000;stop-opacity:1;"
         offset="0.21374045"
         id="stop4676" /><stop
         style="stop-color:#d53131;stop-opacity:0.60924369;"
         offset="1"
         id="stop4678" /></linearGradient><rect
       x="278.88207"
       y="502.18275"
       width="407.59687"
       height="122.86413"
       id="rect2643" /><rect
       x="255.47938"
       y="488.53118"
       width="466.1036"
       height="148.21705"
       id="rect2637" /><rect
       x="264.25539"
       y="485.60585"
       width="452.45203"
       height="146.26682"
       id="rect2268" /><linearGradient
       inkscape:collect="always"
       xlink:href="#linearGradient4680"
       id="linearGradient4682"
       x1="279.13802"
       y1="502.60113"
       x2="578.64338"
       y2="502.60113"
       gradientUnits="userSpaceOnUse" /><linearGradient
       inkscape:collect="always"
       xlink:href="#linearGradient5454"
       id="linearGradient4722"
       x1="16.209671"
       y1="148.5"
       x2="62.78336"
       y2="148.5"
       gradientUnits="userSpaceOnUse" /></defs><g
     inkscape:label="Vrstva 1"
     inkscape:groupmode="layer"
     id="layer1"><rect
       style="fill:#000000;stroke-width:0.264999"
       id="rect390"
       width="190.45947"
       height="59.837845"
       x="9.7702637"
       y="118.58108" /><rect
       style="fill:#4d4d4d;stroke-width:0.241329"
       id="rect662"
       width="183.2355"
       height="51.58189"
       x="13.382248"
       y="122.70905" /><path
       style="font-variation-settings:normal;opacity:1;fill:url(#linearGradient4722);fill-opacity:1;stroke:#f1f1f1;stroke-width:0.265;stroke-linecap:butt;stroke-linejoin:miter;stroke-miterlimit:4;stroke-dasharray:none;stroke-dashoffset:0;stroke-opacity:0;stop-color:#000000;stop-opacity:1;fill-rule:nonzero"
       d="m 43.880341,125.22024 4.096176,1.24848 3.217155,1.53713 2.870268,2.16151 1.88242,1.75672 1.448128,1.51883 2.304106,3.49693 1.77125,3.8027 1.008673,4.28014 0.172392,3.66355 -0.149734,2.96163 -0.650218,3.06867 -0.616003,2.05703 -1.396595,3.12653 -2.010649,3.23279 -3.281695,3.53541 -4.400881,2.98277 -2.143624,0.97724 -2.646612,0.90277 -2.87461,0.52984 -2.973207,0.14678 -2.426007,-0.0478 -3.004672,-0.56448 -2.911957,-0.90697 -3.315362,-1.66997 -2.576828,-1.82412 -2.747497,-2.4943 -1.969907,-2.58229 -1.253954,-2.08406 -1.247695,-2.47524 -1.136831,-3.45079 -0.573985,-4.574 0.208021,-4.06245 0.867985,-4.20303 1.694101,-4.18007 2.375135,-3.51142 2.714187,-2.81613 c 1.434273,-1.40969 3.158957,-2.57737 5.109039,-3.55722 l 3.31973,-1.31843 3.464838,-0.87598 3.913419,-0.2163 z"
       id="path817"
       sodipodi:nodetypes="cccccccccccccccccccccccccccccccccccccccccc" /><path
       style="font-variation-settings:normal;opacity:1;vector-effect:none;fill:#4d4d4d;fill-opacity:1;stroke:#000000;stroke-width:0.264583;stroke-linecap:butt;stroke-linejoin:miter;stroke-miterlimit:4;stroke-dasharray:none;stroke-dashoffset:0;stroke-opacity:0;-inkscape-stroke:none;stop-color:#000000;stop-opacity:1"
       d="m 24.606599,138.86765 0.175712,-1.22353 0.178543,-0.3872 0.469206,-0.51584 0.7393,-0.34577 1.190843,-0.15467 4.647725,-0.0981 3.959213,0.4622 4.603109,0.90842 5.11643,1.72596 4.73874,2.24055 2.177387,1.33834 2.209629,1.46926 1.08256,1.05732 0.316632,0.42771 0.180253,0.44437 0.07722,0.43893 -0.05035,0.49345 -0.175095,0.65179 -0.80692,0.86439 -1.192568,0.32886 -0.791101,-0.29479 -0.89951,-0.72462 -1.501009,-1.2368 -3.85142,-2.1361 -2.925287,-1.3217 -3.318593,-1.05845 -3.838452,-1.06079 -3.910272,-0.5718 -3.087777,-0.18595 -1.698463,0.0309 c -0.855744,0.0315 -1.350547,0.1114 -2.025821,0.14291 l -1.096596,-0.57457 -0.661018,-0.94117"
       id="path1473"
       sodipodi:nodetypes="cccccccccccccccccccccccccccccccccc" /><path
       style="font-variation-settings:normal;opacity:1;vector-effect:none;fill:#4d4d4d;fill-opacity:1;stroke:#000000;stroke-width:0.264583;stroke-linecap:butt;stroke-linejoin:miter;stroke-miterlimit:4;stroke-dasharray:none;stroke-dashoffset:0;stroke-opacity:0;-inkscape-stroke:none;stop-color:#000000;stop-opacity:1"
       d="m 24.839315,146.34502 -0.01945,-0.46544 0.204273,-0.5182 0.25231,-0.37062 0.378111,-0.36745 2.49357,-0.27107 2.893542,0.0186 5.832483,0.75419 2.994514,0.90146 2.650864,0.93287 2.627274,1.27777 2.468055,1.33469 2.312215,1.76493 1.769711,1.54166 0.122368,0.56523 0.03612,0.39984 -0.07058,0.41009 -0.259001,0.61328 -0.405782,0.36636 -0.472529,0.2359 -0.56333,0.0618 -0.622065,-0.0757 -2.042823,-1.70871 -3.020426,-2.00976 -2.628686,-1.28226 -3.299619,-1.25309 -1.988077,-0.50406 -1.586365,-0.34232 -3.11026,-0.40326 -3.258399,-0.0663 -1.240934,0.0524 -1.061743,0.0262 -0.692188,-0.33163 -0.437585,-0.39139 -0.178438,-0.44573 z"
       id="path1475"
       sodipodi:nodetypes="cccccccccccccccccccccccccccccccccccc" /><path
       style="font-variation-settings:normal;opacity:1;vector-effect:none;fill:#4d4d4d;fill-opacity:1;stroke:#000000;stroke-width:0.264583;stroke-linecap:butt;stroke-linejoin:miter;stroke-miterlimit:4;stroke-dasharray:none;stroke-dashoffset:0;stroke-opacity:0;-inkscape-stroke:none;stop-color:#000000;stop-opacity:1"
       d="m 25.716498,151.94341 -0.694393,0.63299 -0.15677,0.41121 -0.04552,0.36113 0.04453,0.36844 0.157754,0.35752 0.308844,0.3906 0.476769,0.22885 2.246525,0.0205 2.340912,0.0848 2.328726,0.19994 1.15227,0.21517 1.190013,0.29195 1.725239,0.49897 2.271457,0.68244 1.920993,0.85379 1.806077,1.0013 1.996907,1.33868 1.487519,1.24033 0.472613,0.10816 0.419061,-0.0285 0.393001,-0.22169 0.283156,-0.25971 0.207824,-0.37403 0.150827,-0.39764 -0.159863,-0.60725 -0.194068,-0.30994 -1.909916,-1.64702 -2.139384,-1.46012 -2.785638,-1.50081 -2.912866,-1.06623 -3.310468,-0.85307 -3.476869,-0.44851 z"
       id="path1477"
       sodipodi:nodetypes="cccccccccccccccccccccccccccccccccc" /><text
       xml:space="preserve"
       transform="scale(0.26458333)"
       id="text2266"
       style="fill:#4d4d4d;stroke-width:1.0015748;font-size:32.0000004px;opacity:1;fill-opacity:1;white-space:pre;shape-inside:url(#rect2268);-inkscape-font-specification:AMGDT;font-family:AMGDT;font-weight:normal;font-style:normal;font-stretch:normal;font-variant:normal" /><text
       xml:space="preserve"
       transform="scale(0.26458333)"
       id="text2635"
       style="font-style:normal;font-variant:normal;font-weight:normal;font-stretch:normal;font-size:53.333334px;font-family:Rockwell;-inkscape-font-specification:Rockwell;white-space:pre;shape-inside:url(#rect2637);opacity:1;fill:#000000;fill-opacity:1;stroke-width:1.00157" /><text
       xml:space="preserve"
       transform="matrix(0.40097133,0,0,0.46461075,-40.100255,-85.013889)"
       id="text2641"
       style="font-style:normal;font-variant:normal;font-weight:normal;font-stretch:normal;font-size:74.6667px;line-height:0px;font-family:'Book Antiqua';-inkscape-font-specification:'Book Antiqua, Normal';font-variant-ligatures:normal;font-variant-caps:normal;font-variant-numeric:normal;font-variant-east-asian:normal;white-space:pre;shape-inside:url(#rect2643);opacity:1;fill:url(#linearGradient4682);fill-opacity:1;stroke-width:1.00157"><tspan
         x="278.88281"
         y="523.6376"
         id="tspan5852"><tspan
           style="font-style:italic;font-weight:bold;font-family:Verdana;-inkscape-font-specification:'Verdana, Bold Italic'"
           id="tspan5850">Spotify</tspan></tspan></text></g></svg>
