<?xml version="1.0" encoding="UTF-8" standalone="no"?>
<!-- Created with Inkscape (http://www.inkscape.org/) -->

<svg
   width="210mm"
   height="297mm"
   viewBox="0 0 210 297"
   version="1.1"
   id="svg7224"
   inkscape:version="1.2.2 (732a01da63, 2022-12-09)"
   sodipodi:docname="kresba2.svg"
   xmlns:inkscape="http://www.inkscape.org/namespaces/inkscape"
   xmlns:sodipodi="http://sodipodi.sourceforge.net/DTD/sodipodi-0.dtd"
   xmlns:xlink="http://www.w3.org/1999/xlink"
   xmlns="http://www.w3.org/2000/svg"
   xmlns:svg="http://www.w3.org/2000/svg">
  <sodipodi:namedview
     id="namedview7226"
     pagecolor="#ffffff"
     bordercolor="#000000"
     borderopacity="0.25"
     inkscape:showpageshadow="2"
     inkscape:pageopacity="0.0"
     inkscape:pagecheckerboard="0"
     inkscape:deskcolor="#d1d1d1"
     inkscape:document-units="mm"
     showgrid="false"
     inkscape:zoom="0.74086502"
     inkscape:cx="240.93458"
     inkscape:cy="483.21893"
     inkscape:window-width="1920"
     inkscape:window-height="1001"
     inkscape:window-x="-9"
     inkscape:window-y="-9"
     inkscape:window-maximized="1"
     inkscape:current-layer="layer1" />
  <defs
     id="defs7221" />
  <g
     inkscape:label="Vrstva 1"
     inkscape:groupmode="layer"
     id="layer1">
    <ellipse
       style="fill:#000000;stroke-width:0.244842"
       id="path8797"
       cx="9.545455"
       cy="28.592134"
       rx="9.545455"
       ry="10.348894"
       inkscape:tile-cx="26.817563"
       inkscape:tile-cy="38.493239"
       inkscape:tile-w="20.797296"
       inkscape:tile-h="22.256755"
       inkscape:tile-x0="16.418915"
       inkscape:tile-y0="27.364862" />
    <use
       x="0"
       y="0"
       inkscape:tiled-clone-of="#path8797"
       xlink:href="#path8797"
       id="use9162" />
    <use
       x="0"
       y="0"
       inkscape:tiled-clone-of="#path8797"
       xlink:href="#path8797"
       transform="translate(2.307765e-7,20.697787)"
       id="use9164" />
    <use
       x="0"
       y="0"
       inkscape:tiled-clone-of="#path8797"
       xlink:href="#path8797"
       transform="translate(2.307765e-7,62.093362)"
       id="use9168" />
    <use
       x="0"
       y="0"
       inkscape:tiled-clone-of="#path8797"
       xlink:href="#path8797"
       transform="translate(2.307765e-7,82.791149)"
       id="use9170" />
    <use
       x="0"
       y="0"
       inkscape:tiled-clone-of="#path8797"
       xlink:href="#path8797"
       transform="translate(2.307765e-7,103.48894)"
       id="use9172" />
    <use
       x="0"
       y="0"
       inkscape:tiled-clone-of="#path8797"
       xlink:href="#path8797"
       transform="translate(2.307765e-7,124.18672)"
       id="use9174" />
    <use
       x="0"
       y="0"
       inkscape:tiled-clone-of="#path8797"
       xlink:href="#path8797"
       transform="translate(2.307765e-7,144.88451)"
       id="use9176" />
    <use
       x="0"
       y="0"
       inkscape:tiled-clone-of="#path8797"
       xlink:href="#path8797"
       transform="translate(2.307765e-7,186.28009)"
       id="use9180" />
    <use
       x="0"
       y="0"
       inkscape:tiled-clone-of="#path8797"
       xlink:href="#path8797"
       transform="translate(19.090909)"
       id="use9184" />
    <use
       x="0"
       y="0"
       inkscape:tiled-clone-of="#path8797"
       xlink:href="#path8797"
       transform="translate(19.090909,20.697787)"
       id="use9186" />
    <use
       x="0"
       y="0"
       inkscape:tiled-clone-of="#path8797"
       xlink:href="#path8797"
       transform="translate(19.090909,62.093362)"
       id="use9190" />
    <use
       x="0"
       y="0"
       inkscape:tiled-clone-of="#path8797"
       xlink:href="#path8797"
       transform="translate(19.090909,103.48894)"
       id="use9194" />
    <use
       x="0"
       y="0"
       inkscape:tiled-clone-of="#path8797"
       xlink:href="#path8797"
       transform="translate(19.090909,186.28009)"
       id="use9202" />
    <use
       x="0"
       y="0"
       inkscape:tiled-clone-of="#path8797"
       xlink:href="#path8797"
       transform="translate(38.181818,62.093362)"
       id="use9212" />
    <use
       x="0"
       y="0"
       inkscape:tiled-clone-of="#path8797"
       xlink:href="#path8797"
       transform="translate(38.181818,103.48894)"
       id="use9216" />
    <use
       x="0"
       y="0"
       inkscape:tiled-clone-of="#path8797"
       xlink:href="#path8797"
       transform="translate(57.272727,62.093362)"
       id="use9234"
       style="fill:#ffff00"
       inkscape:highlight-color="#3b6bee" />
    <use
       x="0"
       y="0"
       inkscape:tiled-clone-of="#path8797"
       xlink:href="#path8797"
       transform="translate(57.272727,103.48894)"
       id="use9238" />
    <use
       x="0"
       y="0"
       inkscape:tiled-clone-of="#path8797"
       xlink:href="#path8797"
       transform="translate(57.272727,165.5823)"
       id="use9244" />
    <use
       x="0"
       y="0"
       inkscape:tiled-clone-of="#path8797"
       xlink:href="#path8797"
       transform="translate(57.272727,186.28009)"
       id="use9246" />
    <use
       x="0"
       y="0"
       inkscape:tiled-clone-of="#path8797"
       xlink:href="#path8797"
       transform="translate(57.272727,206.97787)"
       id="use9248" />
    <use
       x="0"
       y="0"
       inkscape:tiled-clone-of="#path8797"
       xlink:href="#path8797"
       transform="translate(76.363636)"
       id="use9250" />
    <use
       x="0"
       y="0"
       inkscape:tiled-clone-of="#path8797"
       xlink:href="#path8797"
       transform="translate(76.363636,103.48894)"
       id="use9260" />
    <use
       x="0"
       y="0"
       inkscape:tiled-clone-of="#path8797"
       xlink:href="#path8797"
       transform="translate(76.363636,206.97787)"
       id="use9270" />
    <use
       x="0"
       y="0"
       inkscape:tiled-clone-of="#path8797"
       xlink:href="#path8797"
       transform="translate(95.454545)"
       id="use9272" />
    <use
       x="0"
       y="0"
       inkscape:tiled-clone-of="#path8797"
       xlink:href="#path8797"
       transform="translate(95.454545,20.697787)"
       id="use9274" />
    <use
       x="0"
       y="0"
       inkscape:tiled-clone-of="#path8797"
       xlink:href="#path8797"
       transform="translate(95.454545,41.395575)"
       id="use9276" />
    <use
       x="0"
       y="0"
       inkscape:tiled-clone-of="#path8797"
       xlink:href="#path8797"
       transform="translate(95.454545,62.093362)"
       id="use9278" />
    <use
       x="0"
       y="0"
       inkscape:tiled-clone-of="#path8797"
       xlink:href="#path8797"
       transform="translate(95.454545,124.18672)"
       id="use9284" />
    <use
       x="0"
       y="0"
       inkscape:tiled-clone-of="#path8797"
       xlink:href="#path8797"
       transform="translate(95.454545,144.88451)"
       id="use9286" />
    <use
       x="0"
       y="0"
       inkscape:tiled-clone-of="#path8797"
       xlink:href="#path8797"
       transform="translate(95.454545,165.5823)"
       id="use9288" />
    <use
       x="0"
       y="0"
       inkscape:tiled-clone-of="#path8797"
       xlink:href="#path8797"
       transform="translate(95.454545,186.28009)"
       id="use9290" />
    <use
       x="0"
       y="0"
       inkscape:tiled-clone-of="#path8797"
       xlink:href="#path8797"
       transform="translate(95.454545,206.97787)"
       id="use9292" />
    <use
       x="0"
       y="0"
       inkscape:tiled-clone-of="#path8797"
       xlink:href="#path8797"
       transform="translate(114.54546)"
       id="use9294" />
    <use
       x="0"
       y="0"
       inkscape:tiled-clone-of="#path8797"
       xlink:href="#path8797"
       transform="translate(114.54546,103.48894)"
       id="use9304" />
    <use
       x="0"
       y="0"
       inkscape:tiled-clone-of="#path8797"
       xlink:href="#path8797"
       transform="translate(114.54546,206.97787)"
       id="use9314" />
    <use
       x="0"
       y="0"
       inkscape:tiled-clone-of="#path8797"
       xlink:href="#path8797"
       transform="translate(133.63636)"
       id="use9316" />
    <use
       x="0"
       y="0"
       inkscape:tiled-clone-of="#path8797"
       xlink:href="#path8797"
       transform="translate(133.63636,20.697787)"
       id="use9318" />
    <use
       x="0"
       y="0"
       inkscape:tiled-clone-of="#path8797"
       xlink:href="#path8797"
       transform="translate(133.63636,41.395575)"
       id="use9320" />
    <use
       x="0"
       y="0"
       inkscape:tiled-clone-of="#path8797"
       xlink:href="#path8797"
       transform="translate(133.63636,62.093362)"
       id="use9322" />
    <use
       x="0"
       y="0"
       inkscape:tiled-clone-of="#path8797"
       xlink:href="#path8797"
       transform="translate(133.63636,103.48894)"
       id="use9326" />
    <use
       x="0"
       y="0"
       inkscape:tiled-clone-of="#path8797"
       xlink:href="#path8797"
       transform="translate(133.63636,144.88451)"
       id="use9330" />
    <use
       x="0"
       y="0"
       inkscape:tiled-clone-of="#path8797"
       xlink:href="#path8797"
       transform="translate(133.63636,165.5823)"
       id="use9332" />
    <use
       x="0"
       y="0"
       inkscape:tiled-clone-of="#path8797"
       xlink:href="#path8797"
       transform="translate(133.63636,186.28009)"
       id="use9334" />
    <use
       x="0"
       y="0"
       inkscape:tiled-clone-of="#path8797"
       xlink:href="#path8797"
       transform="translate(133.63636,206.97787)"
       id="use9336" />
    <use
       x="0"
       y="0"
       inkscape:tiled-clone-of="#path8797"
       xlink:href="#path8797"
       transform="translate(152.72727,62.093362)"
       id="use9344" />
    <use
       x="0"
       y="0"
       inkscape:tiled-clone-of="#path8797"
       xlink:href="#path8797"
       transform="translate(152.72727,103.48894)"
       id="use9348" />
    <use
       x="0"
       y="0"
       inkscape:tiled-clone-of="#path8797"
       xlink:href="#path8797"
       transform="translate(152.72727,144.88451)"
       id="use9352" />
    <use
       x="0"
       y="0"
       inkscape:tiled-clone-of="#path8797"
       xlink:href="#path8797"
       transform="translate(171.81818)"
       id="use9360" />
    <use
       x="0"
       y="0"
       inkscape:tiled-clone-of="#path8797"
       xlink:href="#path8797"
       transform="translate(171.81818,20.697787)"
       id="use9362" />
    <use
       x="0"
       y="0"
       inkscape:tiled-clone-of="#path8797"
       xlink:href="#path8797"
       transform="translate(171.81818,62.093362)"
       id="use9366" />
    <use
       x="0"
       y="0"
       inkscape:tiled-clone-of="#path8797"
       xlink:href="#path8797"
       transform="translate(171.81818,103.48894)"
       id="use9370" />
    <use
       x="0"
       y="0"
       inkscape:tiled-clone-of="#path8797"
       xlink:href="#path8797"
       transform="translate(171.81818,144.88451)"
       id="use9374" />
    <use
       x="0"
       y="0"
       inkscape:tiled-clone-of="#path8797"
       xlink:href="#path8797"
       transform="translate(171.81818,186.28009)"
       id="use9378" />
    <use
       x="0"
       y="0"
       inkscape:tiled-clone-of="#path8797"
       xlink:href="#path8797"
       transform="translate(171.81818,206.97787)"
       id="use9380" />
    <use
       x="0"
       y="0"
       inkscape:tiled-clone-of="#path8797"
       xlink:href="#path8797"
       transform="translate(190.90909)"
       id="use9382" />
    <use
       x="0"
       y="0"
       inkscape:tiled-clone-of="#path8797"
       xlink:href="#path8797"
       transform="translate(190.90909,20.697787)"
       id="use9384" />
    <use
       x="0"
       y="0"
       inkscape:tiled-clone-of="#path8797"
       xlink:href="#path8797"
       transform="translate(190.90909,62.093362)"
       id="use9388" />
    <use
       x="0"
       y="0"
       inkscape:tiled-clone-of="#path8797"
       xlink:href="#path8797"
       transform="translate(190.90909,82.791149)"
       id="use9390" />
    <use
       x="0"
       y="0"
       inkscape:tiled-clone-of="#path8797"
       xlink:href="#path8797"
       transform="translate(190.90909,103.48894)"
       id="use9392" />
    <use
       x="0"
       y="0"
       inkscape:tiled-clone-of="#path8797"
       xlink:href="#path8797"
       transform="translate(190.90909,124.18672)"
       id="use9394" />
    <use
       x="0"
       y="0"
       inkscape:tiled-clone-of="#path8797"
       xlink:href="#path8797"
       transform="translate(190.90909,144.88451)"
       id="use9396" />
    <use
       x="0"
       y="0"
       inkscape:tiled-clone-of="#path8797"
       xlink:href="#path8797"
       transform="translate(190.90909,186.28009)"
       id="use9400" />
    <use
       x="0"
       y="0"
       inkscape:tiled-clone-of="#path8797"
       xlink:href="#path8797"
       transform="translate(190.90909,206.97787)"
       id="use9402" />
    <use
       x="0"
       y="0"
       inkscape:tiled-clone-of="#path8797"
       xlink:href="#path8797"
       transform="translate(57.272727,41.395574)"
       id="use9839" />
    <use
       x="0"
       y="0"
       inkscape:tiled-clone-of="#path8797"
       xlink:href="#path8797"
       transform="translate(57.272727,20.697787)"
       id="use9841" />
    <use
       x="0"
       y="0"
       inkscape:tiled-clone-of="#path8797"
       xlink:href="#path8797"
       transform="translate(57.272727)"
       id="use9843" />
    <use
       x="0"
       y="0"
       inkscape:tiled-clone-of="#path8797"
       xlink:href="#path8797"
       transform="translate(19.090909,144.88451)"
       id="use10124" />
    <use
       x="0"
       y="0"
       inkscape:tiled-clone-of="#path8797"
       xlink:href="#path8797"
       transform="translate(57.272726,144.88451)"
       id="use10126" />
    <use
       x="0"
       y="0"
       inkscape:tiled-clone-of="#path8797"
       xlink:href="#path8797"
       transform="translate(38.181818,144.88451)"
       id="use10128" />
    <use
       x="0"
       y="0"
       inkscape:tiled-clone-of="#path8797"
       xlink:href="#path8797"
       transform="translate(19.090909,206.97787)"
       id="use10238" />
    <use
       x="0"
       y="0"
       inkscape:tiled-clone-of="#path8797"
       xlink:href="#path8797"
       transform="translate(2.307765e-7,206.97787)"
       id="use10240" />
    <path
       style="fill:#ffff00;stroke-width:0.976648"
       d="m 174.40373,380.7709 c -14.57526,-2.98608 -26.16572,-15.65976 -28.89548,-31.59599 -3.8618,-22.54504 13.05275,-44.64882 34.26221,-44.77351 7.76517,-0.0457 12.5651,1.41578 19.36997,5.89757 16.33576,10.75899 21.60548,35.25936 11.34838,52.76178 -7.47084,12.74802 -23.03073,20.38464 -36.08508,17.71015 z"
       id="path10365"
       transform="scale(0.26458333)" />
    <path
       style="fill:#ffff00;stroke-width:0.976648"
       d="m 246.56203,380.7709 c -14.57526,-2.98608 -26.16572,-15.65976 -28.89548,-31.59599 -3.86181,-22.54504 13.05275,-44.64882 34.26221,-44.77351 7.76517,-0.0457 12.5651,1.41578 19.36997,5.89757 16.33576,10.75899 21.60548,35.25936 11.34838,52.76178 -7.47084,12.74802 -23.03073,20.38464 -36.08508,17.71015 z"
       id="path10367"
       transform="scale(0.26458333)" />
    <path
       style="fill:#ffff00;stroke-width:0.976648"
       d="M 102.24543,380.7709 C 87.670172,377.78482 76.079711,365.11114 73.349951,349.17491 69.488148,326.62987 86.402702,304.52609 107.61216,304.4014 c 7.76517,-0.0457 12.56511,1.41578 19.36997,5.89757 16.33577,10.75899 21.60548,35.25936 11.34838,52.76178 -7.47084,12.74802 -23.03073,20.38464 -36.08508,17.71015 z"
       id="path10369"
       transform="scale(0.26458333)" />
    <path
       style="fill:#ffff00;stroke-width:0.976648"
       d="M 30.087135,380.7709 C 15.511873,377.78482 3.9214132,365.11114 1.1916526,349.17491 -2.6701501,326.62987 14.244404,304.52609 35.453862,304.4014 c 7.765171,-0.0457 12.565105,1.41578 19.369972,5.89757 16.335764,10.75899 21.605478,35.25936 11.348378,52.76178 -7.470837,12.74802 -23.030729,20.38464 -36.085077,17.71015 z"
       id="path10371"
       transform="scale(0.26458333)" />
    <path
       style="fill:#ffff00;stroke-width:0.976648"
       d="M 29.138963,458.89724 C 19.036772,456.29551 8.9439236,447.96091 4.7182302,438.73078 c -7.6247286,-16.6546 -4.28342692,-34.7942 8.6074198,-46.72886 13.574374,-12.56747 31.932625,-12.56747 45.506998,0 24.492209,22.67547 11.034433,65.23454 -21.290831,67.33044 -2.949714,0.19126 -6.730998,-0.005 -8.402854,-0.43512 z"
       id="path10373"
       transform="scale(0.26458333)" />
    <path
       style="fill:#ffff00;stroke-width:0.976648"
       d="M 27.094504,536.41854 C 0.05605159,527.58118 -8.239834,492.88633 11.611071,471.66411 c 2.433494,-2.6016 6.959729,-6.01161 10.058301,-7.5778 4.982631,-2.51849 6.648078,-2.84762 14.409777,-2.84762 7.7617,0 9.427146,0.32913 14.409777,2.84762 9.530004,4.81699 16.859083,14.19966 19.856294,25.41998 4.741609,17.75064 -4.417588,37.5654 -20.839497,45.0836 -6.57111,3.00835 -16.358473,3.80696 -22.411219,1.82865 z"
       id="path10375"
       transform="scale(0.26458333)" />
    <path
       style="fill:#ffff00;stroke-width:0.976648"
       d="M 23.890247,613.62523 C 17.262822,611.08396 7.7445485,601.87147 4.4591988,594.81841 -4.783795,574.97534 3.5494003,550.82754 22.744348,541.83198 c 7.892856,-3.69892 18.776746,-3.69892 26.669602,0 19.566503,9.16969 27.67676,33.27394 17.879976,53.14054 -8.541915,17.32189 -26.616821,25.08958 -43.403679,18.65271 z"
       id="path10377"
       transform="scale(0.26458333)" />
    <path
       style="fill:#ffff00;stroke-width:0.976648"
       d="M 30.936642,693.58883 C 12.905465,690.91603 -1.0218082,671.83168 0.80242992,652.29634 2.3925661,635.26795 13.396704,621.95533 29.0816,618.0847 c 10.892894,-2.68809 21.880371,0.6233 30.747285,9.26657 8.795613,8.57376 13.26795,22.39868 11.183176,34.56951 -3.549333,20.72086 -20.984089,34.49801 -40.075419,31.66805 z"
       id="path10379"
       transform="scale(0.26458333)" />
    <path
       style="fill:#ffff00;stroke-width:0.976648"
       d="m 103.09494,693.58883 c -18.084109,-2.68065 -31.963805,-21.6998 -30.134212,-41.29249 1.590136,-17.02839 12.594274,-30.34101 28.279172,-34.21164 10.89289,-2.68809 21.88037,0.6233 30.74728,9.26657 8.79562,8.57376 13.26795,22.39868 11.18318,34.56951 -3.54933,20.72086 -20.98409,34.49801 -40.07542,31.66805 z"
       id="path10381"
       transform="scale(0.26458333)" />
    <path
       style="fill:#ffff00;stroke-width:0.976648"
       d="m 175.25324,693.58883 c -19.17921,-2.84298 -33.25164,-23.77725 -29.74499,-44.24891 2.86952,-16.75218 13.9589,-28.54975 29.83244,-31.73761 4.62382,-0.92859 6.68043,-0.84444 12.13691,0.49663 28.28803,6.95254 37.95138,44.24484 16.9776,65.51914 -7.88376,7.99671 -18.36848,11.57663 -29.20196,9.97075 z"
       id="path10383"
       transform="scale(0.26458333)" />
    <path
       style="fill:#ffff00;stroke-width:0.976648"
       d="m 244.26559,771.21503 c -14.877,-3.97503 -25.60402,-17.68199 -27.0126,-34.5166 -0.6176,-7.38128 1.44944,-16.82524 5.01053,-22.89231 5.44246,-9.27239 15.87533,-16.68573 25.00342,-17.76682 2.63975,-0.31264 4.79955,-0.885 4.79955,-1.2719 0,-0.38691 -2.1598,-0.95926 -4.79955,-1.2719 -6.4426,-0.76303 -13.22731,-4.37941 -18.87857,-10.06264 -8.80152,-8.8513 -12.84381,-21.70485 -10.72182,-34.09294 2.86952,-16.75218 13.9589,-28.54975 29.83244,-31.73761 4.62382,-0.92859 6.68043,-0.84444 12.1369,0.49663 15.495,3.80831 26.61677,17.29783 28.19487,34.1974 1.8206,19.49634 -12.46659,39.12382 -29.98961,41.19916 -2.63975,0.31264 -4.79955,0.88499 -4.79955,1.2719 0,0.3869 2.1598,0.95926 4.79955,1.2719 9.87713,1.1698 20.24992,9.03837 25.64098,19.45068 11.38663,21.99214 -0.16031,49.89471 -23.08828,55.79164 -7.00797,1.80241 -9.16672,1.7935 -16.12826,-0.0666 z"
       id="path10385"
       transform="scale(0.26458333)" />
    <path
       style="fill:#ffff00;stroke-width:0.976648"
       d="m 243.5694,849.42954 c -9.25907,-3.02627 -17.50025,-9.84584 -21.58159,-17.85872 -8.63072,-16.94469 -6.01761,-34.44895 7.11578,-47.66599 7.86292,-7.913 14.44083,-10.52038 25.04835,-9.92875 13.33628,0.74381 23.98968,8.36651 30.17957,21.59401 9.03178,19.30046 0.53797,43.38319 -18.35089,52.03079 -6.57111,3.00836 -16.35847,3.80696 -22.41122,1.82866 z"
       id="path10387"
       transform="scale(0.26458333)" />
    <path
       style="fill:#ffff00;stroke-width:0.976648"
       d="m 242.3925,927.25055 c -9.74512,-3.54349 -16.97172,-10.3504 -21.68767,-20.42816 -9.02971,-19.29604 -0.57475,-43.03343 18.51441,-51.97941 7.89286,-3.69892 18.77675,-3.69892 26.6696,0 16.55275,7.75731 25.67109,27.4416 20.93127,45.18552 -3.00897,11.26435 -10.39031,20.68617 -19.85629,25.3453 -7.0696,3.47964 -17.89019,4.30611 -24.57132,1.87675 z"
       id="path10389"
       transform="scale(0.26458333)" />
    <path
       style="fill:#ffff00;stroke-width:0.976648"
       d="m 314.5508,927.25055 c -9.74512,-3.54349 -16.97172,-10.3504 -21.68767,-20.42816 -9.02971,-19.29604 -0.57475,-43.03343 18.51441,-51.97941 7.89286,-3.69892 18.77675,-3.69892 26.6696,0 16.55275,7.75731 25.67109,27.4416 20.93127,45.18552 -3.00897,11.26435 -10.39031,20.68617 -19.85629,25.3453 -7.0696,3.47964 -17.8902,4.30611 -24.57132,1.87675 z"
       id="path10391"
       transform="scale(0.26458333)" />
    <path
       style="fill:#ffff00;stroke-width:0.976648"
       d="m 386.70909,927.25055 c -9.74511,-3.54349 -16.97171,-10.3504 -21.68766,-20.42816 -9.02971,-19.29604 -0.57475,-43.03343 18.51441,-51.97941 7.89286,-3.69892 18.77675,-3.69892 26.6696,0 11.30164,5.29642 19.01972,15.68936 21.48136,28.92617 3.03756,16.33369 -5.84117,34.43569 -20.40638,41.60465 -7.06961,3.47964 -17.8902,4.30611 -24.57133,1.87675 z"
       id="path10393"
       transform="scale(0.26458333)" />
    <path
       style="fill:#ffff00;stroke-width:0.976648"
       d="m 458.86739,927.25055 c -9.74511,-3.54349 -16.97171,-10.3504 -21.68766,-20.42816 -9.02971,-19.29604 -0.57475,-43.03343 18.51441,-51.97941 7.89285,-3.69892 18.77674,-3.69892 26.6696,0 11.30164,5.29642 19.01972,15.68936 21.48136,28.92617 3.03756,16.33369 -5.84117,34.43569 -20.40638,41.60465 -7.06961,3.47964 -17.8902,4.30611 -24.57133,1.87675 z"
       id="path10395"
       transform="scale(0.26458333)" />
    <path
       style="fill:#ffff00;stroke-width:0.976648"
       d="m 530.23464,926.94639 c -9.41558,-3.49708 -16.14943,-10.02914 -21.09134,-20.45935 -2.79548,-5.90005 -3.0601,-7.30174 -3.0601,-16.20966 0,-8.92499 0.26143,-10.30294 3.08576,-16.26449 4.1276,-8.71245 9.85147,-14.71275 17.73912,-18.59583 5.6414,-2.77726 7.40423,-3.16895 14.25865,-3.16827 6.42974,6.3e-4 8.80606,0.46222 13.35531,2.59419 11.30164,5.29642 19.01972,15.68936 21.48136,28.92617 3.03756,16.33369 -5.84117,34.43569 -20.40639,41.60465 -7.50913,3.69598 -17.90913,4.34083 -25.36237,1.57259 z"
       id="path10397"
       transform="scale(0.26458333)" />
    <path
       style="fill:#ffff00;stroke-width:0.976648"
       d="m 532.20259,849.42954 c -22.42155,-7.32836 -32.82394,-32.75912 -22.4965,-54.9973 1.17274,-2.52528 4.78655,-7.26261 8.03069,-10.52741 7.86292,-7.913 14.44083,-10.52038 25.04835,-9.92875 9.40597,0.52461 16.37857,3.75897 22.72097,10.53951 14.56659,15.57286 14.8173,38.64443 0.59523,54.77635 -8.03321,9.11197 -23.17882,13.64134 -33.89874,10.1376 z"
       id="path10399"
       transform="scale(0.26458333)" />
    <path
       style="fill:#ffff00;stroke-width:0.976648"
       d="m 532.89878,771.21503 c -14.87699,-3.97503 -25.60402,-17.68199 -27.01259,-34.5166 -0.61954,-7.40446 1.45057,-16.82383 5.04558,-22.95825 5.46228,-9.32067 15.74175,-16.60813 24.96836,-17.70088 2.63975,-0.31264 4.79955,-0.885 4.79955,-1.2719 0,-0.38691 -2.1598,-0.95926 -4.79955,-1.2719 -18.72771,-2.21802 -33.10921,-23.67123 -29.60039,-44.15558 2.86953,-16.75218 13.9589,-28.54975 29.83244,-31.73761 4.62382,-0.92859 6.68043,-0.84444 12.13691,0.49663 28.66896,7.04616 38.1353,45.22478 16.32737,65.84981 -6.16575,5.83131 -11.79356,8.79723 -18.1128,9.54565 -2.64487,0.31324 -4.80887,0.88609 -4.80887,1.273 0,0.3869 2.164,0.95976 4.80887,1.273 6.31924,0.74842 11.94705,3.71434 18.1128,9.54565 21.48768,20.32215 12.44185,58.49125 -15.56942,65.69557 -7.00796,1.80241 -9.16671,1.7935 -16.12826,-0.0666 z"
       id="path10401"
       transform="scale(0.26458333)" />
    <path
       style="fill:#ffff00;stroke-width:0.976648"
       d="m 531.24093,770.04513 c -9.90963,-3.54063 -16.62456,-9.90844 -21.56559,-20.45079 -2.31861,-4.94706 -2.61703,-6.75129 -2.61703,-15.82246 0,-9.17002 0.28493,-10.84934 2.72984,-16.08935 4.9622,-10.63517 14.88463,-18.66447 26.01499,-21.0515 2.6931,-0.57757 4.89654,-1.4162 4.89654,-1.86363 0,-0.44743 -2.3037,-1.3053 -5.11934,-1.90638 -7.92784,-1.69243 -12.85081,-4.5447 -18.64383,-10.80185 -7.601,-8.20999 -9.86998,-14.36437 -9.87458,-26.78381 -0.003,-8.93527 0.25537,-10.2978 3.09177,-16.28507 3.79683,-8.01458 9.77811,-14.16311 17.43508,-17.92264 4.93896,-2.42499 6.95284,-2.84655 13.59846,-2.84655 6.58204,0 8.67534,0.42939 13.39748,2.74823 7.39868,3.63316 13.57208,9.97116 17.51662,17.98367 3.01886,6.13217 3.21482,7.15559 3.21482,16.78941 0,9.01873 -0.30621,10.90764 -2.53251,15.6223 -5.13081,10.86551 -15.21113,19.17973 -26.07998,21.51068 -2.76588,0.59317 -5.02888,1.44458 -5.02888,1.89201 0,0.44743 2.2085,1.28715 4.90778,1.86604 10.9024,2.33814 20.45464,9.98106 25.58954,20.47464 2.93443,5.99674 3.14405,7.10777 3.14405,16.6638 0,9.47902 -0.22966,10.72347 -3.09539,16.77263 -7.79593,16.45613 -25.68085,24.96683 -40.97984,19.50062 z"
       id="path10403"
       transform="scale(0.26458333)" />
    <path
       style="fill:#ffff00;stroke-width:0.976648"
       d="m 608.20303,693.58883 c -19.33879,-2.86663 -33.28082,-23.60691 -29.74499,-44.24891 2.86952,-16.75218 13.9589,-28.54975 29.83244,-31.73761 4.62382,-0.92859 6.68043,-0.84444 12.13691,0.49663 28.66895,7.04616 38.13529,45.22478 16.32737,65.84981 -8.65575,8.18624 -17.71803,11.24599 -28.55173,9.64008 z"
       id="path10405"
       transform="scale(0.26458333)" />
    <path
       style="fill:#ffff00;stroke-width:0.976648"
       d="m 680.36133,693.58883 c -19.38972,-2.87418 -33.29013,-23.55256 -29.74499,-44.24891 2.86952,-16.75218 13.9589,-28.54975 29.83244,-31.73761 4.62382,-0.92859 6.68043,-0.84444 12.1369,0.49663 28.66896,7.04616 38.1353,45.22478 16.32738,65.84981 -8.65575,8.18624 -17.71803,11.24599 -28.55173,9.64008 z"
       id="path10407"
       transform="scale(0.26458333)" />
    <path
       style="fill:#ffff00;stroke-width:0.976648"
       d="m 752.51962,693.58883 c -19.38971,-2.87418 -33.29012,-23.55256 -29.74498,-44.24891 2.86952,-16.75218 13.9589,-28.54975 29.83243,-31.73761 4.62382,-0.92859 6.68044,-0.84444 12.13691,0.49663 28.66896,7.04616 38.1353,45.22478 16.32738,65.84981 -8.65575,8.18624 -17.71803,11.24599 -28.55174,9.64008 z"
       id="path10409"
       transform="scale(0.26458333)" />
    <path
       style="fill:#ffff00;stroke-width:0.976648"
       d="m 749.45302,692.29701 c -2.90607,-0.81084 -6.6826,-2.33878 -8.39228,-3.39542 -5.02846,-3.10776 -12.10206,-11.32442 -14.91418,-17.32424 -2.31445,-4.93804 -2.61335,-6.7468 -2.61335,-15.81444 0,-9.47901 0.22966,-10.72346 3.09539,-16.77262 3.79683,-8.01458 9.7781,-14.16311 17.43508,-17.92264 4.93896,-2.42499 6.95284,-2.84655 13.59845,-2.84655 6.58205,0 8.67534,0.42939 13.39749,2.74823 7.39867,3.63316 13.57207,9.97116 17.51662,17.98367 3.01885,6.13217 3.21482,7.15559 3.21482,16.78941 0,9.08988 -0.29786,10.89469 -2.61336,15.83494 -7.45184,15.89896 -24.72059,24.90602 -39.72468,20.71966 z"
       id="path10411"
       transform="scale(0.26458333)" />
    <path
       style="fill:#ffff00;stroke-width:0.976648"
       d="m 749.45302,692.29701 c -2.90607,-0.81084 -6.6826,-2.33878 -8.39228,-3.39542 -5.02846,-3.10776 -12.10206,-11.32442 -14.91418,-17.32424 -2.31445,-4.93804 -2.61335,-6.7468 -2.61335,-15.81444 0,-9.47901 0.22966,-10.72346 3.09539,-16.77262 3.79683,-8.01458 9.7781,-14.16311 17.43508,-17.92264 4.93896,-2.42499 6.95284,-2.84655 13.59845,-2.84655 6.58205,0 8.67534,0.42939 13.39749,2.74823 7.39867,3.63316 13.57207,9.97116 17.51662,17.98367 3.01885,6.13217 3.21482,7.15559 3.21482,16.78941 0,9.08988 -0.29786,10.89469 -2.61336,15.83494 -7.45184,15.89896 -24.72059,24.90602 -39.72468,20.71966 z"
       id="path10413"
       transform="scale(0.26458333)" />
    <path
       style="fill:#ffff00;stroke-width:0.955937"
       d="M 748.39461,614.58262 C 732.94889,609.64851 722.076,594.30089 722.076,577.43259 c 0,-17.30553 11.2136,-32.73606 27.0861,-37.27198 24.0302,-6.86716 47.13707,16.18305 43.38714,43.28076 -3.04594,22.01063 -24.77149,37.33316 -44.15463,31.14125 z"
       id="path10556"
       transform="scale(0.26458333)" />
    <path
       style="fill:#ffff00;stroke-width:0.955937"
       d="m 747.66805,536.0578 c -18.18246,-6.01129 -29.10957,-26.397 -24.61159,-45.91558 2.54934,-11.06262 11.18149,-21.78267 21.30227,-26.45476 4.8713,-2.24875 7.08552,-2.68813 13.50722,-2.68031 6.73462,0.008 8.46119,0.39354 14.01569,3.12801 14.76531,7.26894 23.0615,23.74387 20.6676,41.04262 -3.10574,22.44273 -24.94708,37.47043 -44.88119,30.88002 z"
       id="path10558"
       transform="scale(0.26458333)" />
    <path
       style="fill:#ffff00;stroke-width:0.955937"
       d="M 750.07317,458.71062 C 734.07885,454.58946 722.076,438.38175 722.076,420.90541 c 0,-14.97178 9.04159,-29.36899 22.28273,-35.48154 11.39435,-5.26001 25.59396,-3.0771 35.27482,5.42281 20.65378,18.13426 16.59089,53.10864 -7.55011,64.99321 -6.52392,3.21172 -15.92711,4.43815 -22.01027,2.87073 z"
       id="path10560"
       transform="scale(0.26458333)" />
    <path
       style="fill:#ffff00;stroke-width:0.955937"
       d="m 747.24852,379.61689 c -10.24699,-3.66485 -18.63282,-12.30068 -22.92942,-23.613 -1.32107,-3.47818 -1.81065,-7.23074 -1.80555,-13.83929 0.006,-8.20661 0.29633,-9.67932 3.05558,-15.51769 4.08066,-8.6344 11.13816,-15.96647 18.67717,-19.40382 8.24303,-3.75834 18.75223,-3.86507 26.50273,-0.26916 29.07591,13.49003 29.82046,56.57874 1.22093,70.65824 -7.8069,3.84332 -17.37662,4.61161 -24.72144,1.98472 z"
       id="path10562"
       transform="scale(0.26458333)" />
    <path
       style="fill:#ffff00;stroke-width:0.955937"
       d="m 676.48951,379.9689 c -33.05351,-10.7997 -35.74546,-58.32869 -4.13429,-72.99497 7.75049,-3.59591 18.25969,-3.48918 26.50273,0.26916 6.94028,3.16436 14.1131,10.22518 17.82136,17.5431 12.32044,24.3132 -3.75794,54.94499 -29.48681,56.17692 -3.96819,0.19 -8.31416,-0.2137 -10.70299,-0.99421 z"
       id="path10564"
       transform="scale(0.26458333)" />
    <path
       style="fill:#ffff00;stroke-width:0.955937"
       d="m 533.47172,380.4626 c -17.86004,-4.64609 -30.44845,-24.86741 -27.3019,-43.85624 2.16682,-13.07638 10.44014,-24.24171 21.90128,-29.55709 4.4468,-2.0623 6.87531,-2.53603 13.11306,-2.55793 6.73433,-0.0236 8.41171,0.34538 13.93951,3.0667 23.5022,11.57009 28.78192,43.21419 10.44508,62.6027 -6.48032,6.85198 -13.55904,10.23975 -22.3639,10.70304 -3.74711,0.19716 -8.12702,0.0166 -9.73313,-0.40118 z"
       id="path10568"
       transform="scale(0.26458333)" />
    <path
       style="fill:#ffff00;stroke-width:0.955937"
       d="m 530.44376,301.22407 c -6.15863,-2.2874 -9.22936,-4.43597 -14.47828,-10.13038 -17.71906,-19.22291 -11.47272,-51.37299 12.10562,-62.30801 4.4468,-2.0623 6.87531,-2.53603 13.11306,-2.55793 6.73433,-0.0236 8.41171,0.34538 13.93951,3.0667 23.59864,11.61757 28.78323,43.21281 10.29822,62.75798 -6.66998,7.05252 -13.47243,10.23645 -22.82615,10.68393 -5.39155,0.25793 -8.39073,-0.11531 -12.15198,-1.51229 z"
       id="path10570"
       transform="scale(0.26458333)" />
    <path
       style="fill:#ffff00;stroke-width:0.955937"
       d="m 603.2023,379.63421 c -14.68262,-5.27866 -24.01341,-18.03742 -25.05091,-34.25416 -1.18656,-18.5469 9.63325,-34.8699 26.41719,-39.85353 6.72302,-1.99626 11.00678,-1.9427 17.97065,0.22471 10.5364,3.27929 17.77586,9.85832 22.91205,20.82183 2.34722,5.01029 2.60942,6.62493 2.60942,16.06876 0,9.80724 -0.19894,10.91869 -3.02032,16.87402 -6.20664,13.10084 -17.01052,20.78986 -30.17504,21.47527 -4.96998,0.25877 -8.22115,-0.11948 -11.66304,-1.3569 z"
       id="path10572"
       transform="scale(0.26458333)" />
    <path
       style="fill:#ffff00;stroke-width:0.955937"
       d="m 530.32404,222.91832 c -12.44241,-4.61568 -21.62425,-16.21301 -24.12817,-30.47566 -4.42847,-25.22517 18.28098,-49.38787 41.37015,-44.01755 15.01653,3.4927 25.93923,15.643 28.62318,31.84013 2.67892,16.16676 -6.6443,34.43993 -21.07912,41.31432 -7.28864,3.47112 -17.5446,4.02507 -24.78604,1.33876 z"
       id="path10574"
       transform="scale(0.26458333)" />
    <path
       style="fill:#ffff00;stroke-width:0.955937"
       d="m 530.99772,145.06238 c -5.83767,-1.87121 -13.61254,-7.79795 -17.61549,-13.4282 -11.8179,-16.62212 -9.70088,-39.405369 4.90165,-52.751254 21.06567,-19.252838 52.99661,-6.504396 57.90532,23.118724 2.69024,16.23512 -6.37208,34.19106 -20.82494,41.26218 -6.5829,3.22071 -17.4316,4.02148 -24.36654,1.79855 z"
       id="path10576"
       transform="scale(0.26458333)" />
    <path
       style="fill:#ffff00;stroke-width:0.955937"
       d="m 460.51442,145.65964 c -16.20109,-5.26198 -26.72416,-20.06965 -26.72416,-37.60526 0,-9.063694 1.95635,-15.458225 6.97132,-22.786475 7.27689,-10.633546 20.3007,-17.057673 31.69528,-15.634015 10.10859,1.262985 21.24987,8.970888 26.9592,18.651257 5.97433,10.129688 6.57801,25.569333 1.42589,36.468493 -6.33493,13.40139 -17.35966,21.09868 -30.76247,21.47787 -3.94844,0.11171 -8.25272,-0.14563 -9.56506,-0.57187 z"
       id="path10578"
       transform="scale(0.26458333)" />
    <path
       style="fill:#ffff00;stroke-width:0.955937"
       d="m 386.54578,144.84275 c -26.10576,-9.38168 -33.59514,-43.48392 -14.12181,-64.302485 8.53346,-9.122959 20.51133,-12.873682 31.84195,-9.970913 11.1338,2.852347 18.95045,9.444061 24.00332,20.241792 9.17682,19.610406 1.45634,43.202906 -17.13184,52.352066 -7.16642,3.52733 -17.48826,4.23228 -24.59162,1.67954 z"
       id="path10580"
       transform="scale(0.26458333)" />
    <path
       style="fill:#ffff00;stroke-width:0.955937"
       d=""
       id="path10582"
       transform="scale(0.26458333)" />
    <path
       style="fill:#ffff00;stroke-width:0.955937"
       d="m 240.82431,144.28876 c -9.7081,-4.09606 -15.82739,-10.16359 -20.6394,-20.46482 -2.26775,-4.85467 -2.55547,-6.60816 -2.54257,-15.49568 0.0186,-12.813157 2.12463,-18.576612 9.83249,-26.908113 9.33275,-10.087867 20.77361,-13.898906 32.61666,-10.864859 8.24443,2.112126 15.71152,7.424445 20.71685,14.738615 5.51072,8.05269 7.27458,14.521704 6.78002,24.865937 -0.68596,14.34738 -7.93218,26.08817 -20.10622,32.57742 -5.04599,2.6897 -7.146,3.2315 -13.60269,3.50947 -6.38988,0.27509 -8.51959,-0.0443 -13.05514,-1.95797 z"
       id="path10584"
       transform="scale(0.26458333)" />
    <path
       style="fill:#ffff00;stroke-width:0.955937"
       d="m 242.2352,223.04986 c -19.25648,-6.87837 -29.50769,-28.29016 -23.31129,-48.69046 2.00227,-6.59205 6.40634,-13.55227 11.4904,-18.15952 3.81169,-3.45421 13.17162,-7.61405 18.68095,-8.3024 11.57173,-1.44579 24.44065,4.91765 31.7443,15.69696 5.50844,8.1298 7.24223,14.50845 6.7488,24.82899 -0.47034,9.83759 -3.95821,18.35179 -10.36531,25.30267 -8.62448,9.35646 -23.67096,13.36613 -34.98785,9.32376 z"
       id="path10586"
       transform="scale(0.26458333)" />
    <path
       style="fill:#ffff00;stroke-width:0.955937"
       d="m 242.2352,301.31345 c -23.92441,-8.54575 -32.82295,-39.1216 -17.58048,-60.40746 8.43693,-11.78203 23.2369,-17.45149 35.98838,-13.78616 11.03849,3.17294 18.78708,9.98772 23.99094,21.0997 2.39418,5.11237 2.6506,6.67559 2.6506,16.15869 0,9.80725 -0.19894,10.9187 -3.02032,16.87403 -6.20664,13.10084 -17.01052,20.78986 -30.17504,21.47527 -5.03159,0.26198 -8.23003,-0.11957 -11.85408,-1.41407 z"
       id="path10588"
       transform="scale(0.26458333)" />
    <path
       style="fill:#ffff00;stroke-width:0.955937"
       d="m 313.78723,144.69689 c -20.91745,-7.76903 -30.39372,-32.75264 -20.46816,-53.963071 5.0155,-10.717874 12.86205,-17.319476 23.96713,-20.164467 11.33062,-2.902769 23.30849,0.847954 31.84195,9.970913 14.80936,15.832404 14.65973,40.125945 -0.34201,55.527665 -9.05239,9.29374 -23.57123,12.87335 -34.99891,8.62896 z"
       id="path10590"
       transform="scale(0.26458333)" />
    <use
       x="0"
       y="0"
       inkscape:tiled-clone-of="#path8797"
       xlink:href="#path8797"
       transform="translate(95.45456,82.791149)"
       id="use10592" />
    <path
       style="fill:#ff0000;stroke-width:0.955937"
       d="m 389.29711,458.71062 c -13.18155,-3.3964 -24.10747,-15.37251 -27.20615,-29.82116 -3.67161,-17.12014 5.75278,-36.1031 21.59152,-43.49046 11.24572,-5.24513 25.51323,-3.03547 35.17501,5.44768 20.65378,18.13426 16.59089,53.10864 -7.55011,64.99321 -6.52392,3.21172 -15.92711,4.43815 -22.01027,2.87073 z"
       id="path10594"
       transform="scale(0.26458333)" />
    <path
       style="fill:#ff0000;stroke-width:0.955937"
       d="m 386.28056,379.47298 c -21.51271,-7.9895 -31.12038,-33.70714 -20.50464,-54.8865 3.56025,-7.10303 10.80152,-14.20067 17.69432,-17.34339 8.24303,-3.75834 18.75223,-3.86507 26.50273,-0.26916 29.07591,13.49003 29.82045,56.57874 1.22092,70.65824 -7.97556,3.92636 -17.41894,4.62411 -24.91333,1.84081 z"
       id="path10596"
       transform="scale(0.26458333)" />
    <path
       style="fill:#ff0000;stroke-width:0.955937"
       d="m 386.47246,301.3533 c -13.74853,-4.91718 -23.65,-18.29607 -24.9415,-33.70102 -1.35386,-16.14882 7.87537,-32.14254 22.42061,-38.8536 10.73671,-4.95384 25.19525,-2.76343 34.53623,5.2321 16.87401,14.44353 18.4185,41.36419 3.3004,57.52666 -9.15603,9.78854 -23.90079,13.87844 -35.31574,9.79586 z"
       id="path10598"
       transform="scale(0.26458333)" />
    <path
       style="fill:#ff0000;stroke-width:0.955937"
       d="m 386.54578,223.10634 c -14.07303,-5.05746 -23.70069,-18.04278 -25.01681,-33.74147 -1.35159,-16.1217 7.87918,-32.10936 22.4226,-38.8359 7.11132,-3.28909 17.16933,-3.4417 25.02341,-0.37969 15.49833,6.04222 25.60077,24.86701 22.79293,42.47213 -1.97543,12.38592 -9.98096,23.56365 -20.63051,28.80539 -7.16642,3.52733 -17.48826,4.23228 -24.59162,1.67954 z"
       id="path10600"
       transform="scale(0.26458333)" />
    <path
       style="fill:#ff0000;stroke-width:0.955937"
       d="m 677.17094,223.93084 c -9.89558,-3.26139 -19.32938,-11.49647 -23.40183,-20.42826 -8.17398,-17.92736 -2.14797,-40.04524 13.677,-50.2001 10.11907,-6.49339 21.97037,-7.20132 32.49684,-1.94118 23.02075,11.5036 28.06816,44.42883 9.63647,62.86052 -6.72032,6.72032 -13.69425,9.85211 -22.73178,10.20818 -4.00984,0.15799 -8.36435,-0.0666 -9.6767,-0.49916 z"
       id="path10602"
       transform="scale(0.26458333)" />
    <path
       style="fill:#ff0000;stroke-width:0.955937"
       d="m 674.56329,144.69689 c -20.91744,-7.76903 -30.39372,-32.75264 -20.46816,-53.963071 5.0155,-10.717874 12.86205,-17.319476 23.96713,-20.164467 11.33062,-2.902769 23.30849,0.847954 31.84195,9.970913 14.80937,15.832404 14.65973,40.125945 -0.34201,55.527665 -9.05239,9.29374 -23.57123,12.87335 -34.99891,8.62896 z"
       id="path10604"
       transform="scale(0.26458333)" />
    <path
       style="fill:#ff0000;stroke-width:0.955937"
       d="m 747.32184,144.84275 c -21.70323,-7.79954 -31.48068,-33.67669 -20.78656,-55.01408 5.22828,-10.431713 16.62281,-18.841315 27.34386,-20.180822 9.82938,-1.228099 22.35326,3.78816 29.34825,11.755017 4.24391,4.833538 8.4556,14.304734 9.4316,21.209655 2.32768,16.46759 -6.37431,33.47714 -20.74553,40.55069 -7.16642,3.52733 -17.48826,4.23228 -24.59162,1.67954 z"
       id="path10606"
       transform="scale(0.26458333)" />
    <path
       style="fill:#ff0000;stroke-width:0.955937"
       d="m 747.32184,223.10634 c -14.07303,-5.05746 -23.70069,-18.04278 -25.01681,-33.74147 -1.35159,-16.1217 7.87918,-32.10936 22.4226,-38.8359 7.11133,-3.28909 17.16933,-3.4417 25.02341,-0.37969 15.49833,6.04222 25.60077,24.86701 22.79293,42.47213 -1.97543,12.38592 -9.98096,23.56365 -20.63051,28.80539 -7.16642,3.52733 -17.48826,4.23228 -24.59162,1.67954 z"
       id="path10608"
       transform="scale(0.26458333)" />
    <path
       style="fill:#0000ff;stroke-width:0.955937"
       d="m 458.89172,536.10915 c -9.99,-3.57833 -16.79644,-9.92271 -21.66298,-20.19235 -2.75386,-5.81136 -2.96126,-6.98435 -2.96126,-16.7478 0,-9.82692 0.19503,-10.91049 3.04764,-16.93238 12.01429,-25.36236 43.60004,-28.8588 59.54532,-6.59148 14.69709,20.52425 6.84083,50.15118 -15.84719,59.76172 -5.91047,2.50365 -16.18211,2.82974 -22.12153,0.70229 z"
       id="path10679"
       transform="scale(0.26458333)" />
    <path
       style="fill:#0000ff;stroke-width:0.955937"
       d="m 532.57419,536.54291 c -6.88842,-2.28816 -11.43055,-5.14522 -16.07703,-10.11268 -18.28094,-19.54381 -12.36931,-51.66103 11.57394,-62.8799 4.49633,-2.1068 6.80583,-2.55731 13.11306,-2.55794 6.70488,-6.6e-4 8.43588,0.3834 13.93951,3.09283 23.52939,11.58348 28.78228,43.21381 10.40377,62.64638 -8.48825,8.97507 -22.71714,13.2115 -32.95325,9.81131 z"
       id="path10681"
       transform="scale(0.26458333)" />
    <path
       style="fill:#0000ff;stroke-width:0.955937"
       d="m 604.51925,536.56352 c -10.98031,-3.10072 -21.03969,-13.35899 -24.69038,-25.17856 -6.55004,-21.20657 4.92837,-43.73841 25.21635,-49.49907 15.5721,-4.42161 32.2576,4.07427 39.96785,20.35073 2.8526,6.02189 3.04763,7.10546 3.04763,16.93238 0,9.80724 -0.19894,10.91869 -3.02032,16.87402 -6.11027,12.89743 -16.98045,20.74858 -29.66052,21.42275 -3.54802,0.18865 -8.4353,-0.21737 -10.86061,-0.90225 z"
       id="path10683"
       transform="scale(0.26458333)" />
    <path
       style="fill:#0000ff;stroke-width:0.955937"
       d="m 676.48951,536.43892 c -21.8663,-6.83373 -32.75943,-33.10309 -22.61707,-54.54228 7.46273,-15.77491 24.73774,-24.42881 39.94188,-20.00885 26.34139,7.65765 35.74557,40.63173 17.99203,63.08586 -7.97731,10.08946 -23.5464,15.14381 -35.31684,11.46527 z"
       id="path10685"
       transform="scale(0.26458333)" />
    <path
       style="fill:#0000ff;stroke-width:0.955937"
       d="m 677.85575,849.89451 c -27.97836,-7.04083 -37.38992,-46.16266 -15.9336,-66.23254 7.46621,-6.98377 13.99165,-9.61598 23.8387,-9.61598 6.98604,0 8.88156,0.37755 13.64914,2.7186 10.86147,5.33338 18.86184,16.35383 21.02041,28.95548 2.87063,16.75863 -6.57042,34.97479 -21.72172,41.91129 -5.77844,2.64545 -15.24931,3.67332 -20.85293,2.26315 z"
       id="path10687"
       transform="scale(0.26458333)" />
    <path
       style="fill:#0000ff;stroke-width:0.955937"
       d="m 675.12901,926.99286 c -17.05222,-5.97549 -27.56514,-24.23559 -24.61137,-42.74796 2.0139,-12.62179 9.50618,-23.22635 20.43397,-28.92219 5.18701,-2.7036 6.57252,-2.99391 14.33202,-3.00303 7.52241,-0.009 9.27794,0.32775 14.12636,2.7085 15.21595,7.47159 23.81765,24.69363 20.88248,41.81022 -3.9115,22.81009 -25.32401,37.10666 -45.16346,30.15446 z"
       id="path10689"
       transform="scale(0.26458333)" />
    <path
       style="fill:#0000ff;stroke-width:0.955937"
       d="m 749.6405,927.83646 c -16.89084,-4.55425 -28.86625,-22.34062 -27.33547,-40.59975 1.02972,-12.28252 7.18442,-23.03557 16.89712,-29.52146 14.07486,-9.39883 31.39971,-7.1963 43.27741,5.50193 15.55962,16.63449 13.59711,44.17965 -4.14696,58.20553 -5.29173,4.18287 -15.04149,7.76198 -20.85113,7.65439 -1.91322,-0.0354 -5.44166,-0.59371 -7.84097,-1.24064 z"
       id="path10691"
       transform="scale(0.26458333)" />
    <path
       style="fill:#0000ff;stroke-width:0.955937"
       d="m 750.41986,849.90015 c -17.27179,-4.35224 -29.66737,-22.40838 -28.11283,-40.95085 2.22283,-26.5139 27.51449,-42.61994 49.74295,-31.6769 28.31845,13.94112 27.72202,57.29917 -0.9689,70.4343 -5.60401,2.5656 -15.15883,3.57997 -20.66122,2.19345 z"
       id="path10693"
       transform="scale(0.26458333)" />
    <path
       style="fill:#008000;stroke-width:0.955937"
       d="m 387.61855,614.58262 c -9.1942,-2.93707 -17.65429,-10.25329 -21.91255,-18.9498 -15.89371,-32.45918 14.90732,-68.24536 45.69373,-53.08926 18.31514,9.01652 26.14055,32.95826 17.0519,52.17009 -7.55824,15.9768 -25.57445,24.74331 -40.83308,19.86897 z"
       id="path10695"
       transform="scale(0.26458333)" />
    <path
       style="fill:#008000;stroke-width:0.955937"
       d="m 388.45465,693.07374 c -16.42366,-5.47122 -27.15471,-20.24216 -27.15471,-37.37756 0,-14.82596 8.79577,-29.22617 21.63793,-35.42506 4.67343,-2.25586 6.75956,-2.66978 13.64646,-2.70763 7.30663,-0.0402 8.7739,0.27232 14.49291,3.08642 22.96549,11.3004 28.32944,42.52973 10.67717,62.1633 -8.16553,9.08203 -23.06047,13.67156 -33.29976,10.26053 z"
       id="path10766"
       transform="scale(0.26458333)" />
    <path
       style="fill:#008000;stroke-width:0.955937"
       d="m 388.45465,771.33733 c -13.18504,-4.39234 -23.14614,-15.22741 -26.20992,-28.50953 -4.02503,-17.44938 4.97033,-36.70371 20.69314,-44.29309 4.67343,-2.25586 6.75956,-2.66978 13.64646,-2.70763 7.30663,-0.0402 8.7739,0.27232 14.49291,3.08642 28.5023,14.02485 27.99432,57.35986 -0.82707,70.55472 -6.16494,2.82241 -16.31978,3.69325 -21.79552,1.86911 z"
       id="path10768"
       transform="scale(0.26458333)" />
    <path
       style="fill:#008000;stroke-width:0.955937"
       d="m 389.6438,849.90015 c -17.27179,-4.35224 -29.66737,-22.40838 -28.11284,-40.95085 2.22283,-26.5139 27.5145,-42.61994 49.74296,-31.6769 28.31845,13.94112 27.72201,57.29917 -0.9689,70.4343 -5.60401,2.5656 -15.15883,3.57997 -20.66122,2.19345 z"
       id="path10770"
       transform="scale(0.26458333)" />
    <path
       style="fill:#008000;stroke-width:0.955937"
       d="m 99.738356,927.6772 c -10.214848,-2.82534 -18.55919,-10.2815 -23.637514,-21.1215 -2.347219,-5.01029 -2.609422,-6.62493 -2.609422,-16.06875 0,-9.80725 0.198942,-10.9187 3.020326,-16.87402 4.040069,-8.5277 9.642556,-14.40076 17.362944,-18.2015 5.614212,-2.76387 7.18689,-3.10185 14.4335,-3.10185 6.83281,0 9.0078,0.41011 13.60719,2.56569 21.42674,10.04198 28.43919,39.20744 14.20596,59.08391 -8.41667,11.75374 -23.256,17.34884 -36.382984,13.71802 z"
       id="path10772"
       transform="scale(0.26458333)" />
    <path
       style="fill:#008000;stroke-width:0.955937"
       d="M 28.088372,927.83646 C 11.197536,923.28221 -0.77787391,905.49584 0.75290585,887.23671 1.7826276,874.95419 7.9373231,864.20114 17.650023,857.71525 c 14.074862,-9.39883 31.399714,-7.1963 43.277415,5.50193 15.559616,16.63449 13.597113,44.17965 -4.146956,58.20553 -5.291731,4.18287 -15.041492,7.76198 -20.851133,7.65439 -1.913226,-0.0354 -5.441665,-0.59371 -7.840977,-1.24064 z"
       id="path10774"
       transform="scale(0.26458333)" />
    <path
       style="fill:#008000;stroke-width:0.955937"
       d="M 28.867738,849.90015 C 11.595949,845.54791 -0.79963119,827.49177 0.75490253,808.9493 2.977733,782.4354 28.269401,766.32936 50.497862,777.2724 c 28.318447,13.94112 27.72201,57.29917 -0.968902,70.4343 -5.604012,2.5656 -15.158832,3.57997 -20.661222,2.19345 z"
       id="path10776"
       transform="scale(0.26458333)" />
    <path
       style="fill:#008000;stroke-width:0.955937"
       d="m 98.697008,849.06796 c -10.26952,-3.28568 -17.529554,-9.96086 -22.596166,-20.77585 -2.347219,-5.01029 -2.609422,-6.62493 -2.609422,-16.06875 0,-9.80725 0.198942,-10.9187 3.020326,-16.87402 11.809626,-24.92753 42.031284,-29.19065 58.573994,-8.26255 17.11731,21.65503 6.88867,55.66877 -18.74889,62.3465 -7.07134,1.84186 -10.99518,1.76059 -17.639842,-0.36533 z"
       id="path10778"
       transform="scale(0.26458333)" />
    <path
       style="fill:#ffff00;stroke-width:0.955937"
       d="m 315.71345,536.43892 c -21.86631,-6.83373 -32.75943,-33.10309 -22.61707,-54.54228 7.46272,-15.77491 24.73774,-24.42881 39.94188,-20.00885 26.34139,7.65765 35.74557,40.63173 17.99203,63.08586 -7.97731,10.08946 -23.5464,15.14381 -35.31684,11.46527 z"
       id="path10849"
       transform="scale(0.26458333)" />
    <path
       style="fill:#ffff00;stroke-width:0.955937"
       d="m 243.74319,536.56352 c -10.98031,-3.10072 -21.03969,-13.35899 -24.69038,-25.17856 -6.55005,-21.20657 4.92837,-43.73841 25.21635,-49.49907 15.5721,-4.42161 32.25759,4.07427 39.96785,20.35073 2.8526,6.02189 3.04763,7.10546 3.04763,16.93238 0,9.80724 -0.19894,10.91869 -3.02032,16.87402 -6.11027,12.89743 -16.98045,20.74858 -29.66052,21.42275 -3.54803,0.18865 -8.4353,-0.21737 -10.86061,-0.90225 z"
       id="path10851"
       transform="scale(0.26458333)" />
    <path
       style="fill:#ffff00;stroke-width:0.955937"
       d="m 171.79812,536.54291 c -6.88841,-2.28816 -11.43054,-5.14522 -16.07702,-10.11268 -18.28094,-19.54381 -12.36931,-51.66103 11.57394,-62.8799 4.49633,-2.1068 6.80583,-2.55731 13.11306,-2.55794 6.70488,-6.6e-4 8.43588,0.3834 13.93951,3.09283 23.52938,11.58348 28.78228,43.21381 10.40377,62.64638 -8.48825,8.97507 -22.71714,13.2115 -32.95326,9.81131 z"
       id="path10853"
       transform="scale(0.26458333)" />
    <path
       style="fill:#ffff00;stroke-width:0.955937"
       d="m 98.115662,536.10915 c -9.990005,-3.57833 -16.796447,-9.92271 -21.66298,-20.19235 -2.753861,-5.81136 -2.961262,-6.98435 -2.961262,-16.7478 0,-9.82692 0.195031,-10.91049 3.047635,-16.93238 12.014295,-25.36236 43.600045,-28.8588 59.545325,-6.59148 14.69709,20.52425 6.84083,50.15118 -15.8472,59.76172 -5.91046,2.50365 -16.1821,2.82974 -22.121518,0.70229 z"
       id="path10855"
       transform="scale(0.26458333)" />
    <path
       style="fill:#999999;stroke-width:0.955937"
       d="m 103.29983,380.21497 c -18.373759,-2.72203 -32.941112,-24.20887 -29.399928,-43.3649 2.35114,-12.71848 10.169819,-23.50268 20.837763,-28.74123 4.703547,-2.3097 6.624725,-2.68995 13.590595,-2.68995 6.90823,0 8.90211,0.38769 13.42986,2.61131 7.14806,3.51049 13.54246,10.03631 17.28677,17.64209 2.65001,5.38294 3.1449,7.53324 3.47599,15.10336 0.29165,6.66848 -0.0238,10.0762 -1.28993,13.93639 -5.55461,16.93443 -21.84352,27.88626 -37.93112,25.50293 z"
       id="path10926"
       transform="scale(0.26458333)" />
    <path
       style="fill:#999999;stroke-width:0.955937"
       d="m 174.10516,379.90608 c -10.46601,-2.08984 -19.63448,-9.90014 -25.05643,-21.34468 -4.4521,-9.3974 -4.4521,-22.44177 0,-31.83917 4.04007,-8.5277 9.64256,-14.40076 17.36295,-18.2015 5.62562,-2.76948 7.17216,-3.10041 14.4335,-3.08845 7.04068,0.0116 8.81717,0.37205 13.22964,2.6844 17.81505,9.33596 25.63462,30.46509 18.33926,49.55428 -5.7091,14.93856 -23.40701,25.21072 -38.30892,22.23512 z"
       id="path10997"
       transform="scale(0.26458333)" />
    <path
       style="fill:#999999;stroke-width:0.955937"
       d="m 247.61036,380.24229 c -10.25688,-1.52182 -20.49411,-9.6923 -25.89832,-20.66982 -2.98226,-6.05782 -3.14665,-6.94127 -3.14665,-16.91059 0,-9.42987 0.26638,-11.08725 2.57305,-16.00936 3.38679,-7.22695 11.14283,-15.31403 17.84279,-18.60436 4.5679,-2.24328 6.54487,-2.62927 13.46657,-2.62927 7.03199,0 8.86861,0.37115 13.7873,2.78619 22.93184,11.25937 28.23233,43.57022 10.119,61.68355 -7.81326,7.81327 -18.91457,11.81202 -28.74374,10.35366 z"
       id="path10999"
       transform="scale(0.26458333)" />
    <path
       style="fill:#999999;stroke-width:0.955937"
       d="m 239.35357,299.32658 c -7.7275,-3.73111 -13.98849,-10.09639 -17.75843,-18.05419 -2.83325,-5.9806 -3.02975,-7.07762 -3.02975,-16.91423 0,-9.96932 0.16439,-10.85277 3.14665,-16.91059 3.8609,-7.8426 9.90338,-14.0462 17.14516,-17.60232 4.70355,-2.3097 6.62473,-2.68995 13.5906,-2.68995 7.04637,0 8.86539,0.36928 13.83929,2.80953 7.08405,3.4755 13.4203,9.85379 17.17982,17.29378 2.70757,5.35822 2.8633,6.28932 2.8633,17.11961 0,10.79839 -0.16154,11.77234 -2.82543,17.03488 -3.98383,7.8701 -8.96161,13.13211 -15.95695,16.8681 -5.21785,2.78669 -7.12895,3.26856 -14.1456,3.56673 -7.43585,0.31598 -8.60792,0.10563 -14.04866,-2.52135 z"
       id="path11001"
       transform="scale(0.26458333)" />
    <path
       style="fill:#999999;stroke-width:0.955937"
       d="m 239.35357,221.00508 c -18.13047,-8.57717 -26.60158,-31.84739 -18.36873,-50.45911 3.85867,-8.72317 8.85977,-14.07014 16.85092,-18.01634 6.68744,-3.30239 8.07512,-3.63792 15.04581,-3.63792 9.64945,0 16.15845,2.90252 23.19596,10.34365 7.54518,7.97791 10.04436,13.71547 10.53869,24.19449 0.50149,10.63077 -1.79823,19.30354 -6.97614,26.30857 -9.54493,12.91304 -26.67807,17.70455 -40.28651,11.26666 z"
       id="path11003"
       transform="scale(0.26458333)" />
    <path
       style="fill:#999999;stroke-width:0.955937"
       d="m 239.08572,142.62229 c -7.40347,-3.49347 -13.68645,-9.79558 -17.65824,-17.71201 -2.36495,-4.71374 -2.8688,-6.99926 -3.16554,-14.3594 -0.57261,-14.202879 2.98646,-23.050716 12.71796,-31.616724 7.26801,-6.397556 12.09592,-8.257358 21.4679,-8.269837 6.92148,-0.0092 8.89914,0.373739 13.46877,2.608098 6.41434,3.136344 13.96291,10.824862 17.62812,17.954939 2.18475,4.250064 2.73152,6.731379 3.07153,13.938904 0.70095,14.85893 -4.3397,26.45198 -14.8465,34.14562 -6.12185,4.48275 -11.67775,6.23945 -19.73055,6.23856 -5.54671,-6.2e-4 -7.85527,-0.52248 -12.95345,-2.92815 z"
       id="path11005"
       transform="scale(0.26458333)" />
    <path
       style="fill:#999999;stroke-width:0.955937"
       d="m 311.02128,142.73749 c -14.82499,-7.46863 -23.47071,-24.69341 -20.49651,-40.83499 1.50145,-8.148665 6.87847,-18.443247 11.93605,-22.852161 6.96772,-6.074079 13.24748,-8.422221 22.52397,-8.422221 7.41208,0 8.62801,0.279455 14.0799,3.235953 7.49937,4.066826 12.90782,9.889463 16.78218,18.067387 2.79546,5.900604 3.02032,7.122855 3.02032,16.416872 0,9.42245 -0.19335,10.43438 -3.13572,16.41118 -6.57537,13.35648 -16.55506,20.04442 -30.74668,20.60505 -7.49593,0.29612 -8.5575,0.0964 -13.96351,-2.62707 z"
       id="path11007"
       transform="scale(0.26458333)" />
    <path
       style="fill:#999999;stroke-width:0.955937"
       d="m 383.47311,142.7994 c -7.7275,-3.73111 -13.9885,-10.09639 -17.75843,-18.05419 -2.80496,-5.92088 -3.02975,-7.13894 -3.02975,-16.41695 0,-9.271486 0.22606,-10.498714 3.02033,-16.396802 3.87436,-8.177924 9.28281,-14.000561 16.78218,-18.067387 5.45188,-2.956498 6.66782,-3.235953 14.0799,-3.235953 6.78758,0 8.97011,0.409283 13.36207,2.505758 7.59735,3.62654 12.60427,8.432509 16.49118,15.829313 8.3327,15.857161 6.20389,33.461851 -5.56817,46.047131 -6.52501,6.97577 -13.08664,9.88553 -23.25349,10.3118 -7.51904,0.31525 -8.67605,0.10862 -14.12582,-2.52272 z"
       id="path11009"
       transform="scale(0.26458333)" />
    <path
       style="fill:#999999;stroke-width:0.955937"
       d="m 455.94669,143.24052 c -6.65085,-3.17101 -14.47628,-11.13088 -17.74833,-18.05324 -4.78549,-10.1242 -4.81105,-24.76796 -0.0596,-34.144512 3.49845,-6.903851 10.806,-14.318261 17.34993,-17.60364 4.67712,-2.348149 6.64877,-2.766369 13.13841,-2.786879 6.26928,-0.01981 8.57472,0.419394 12.88486,2.454681 7.7806,3.674077 14.66247,10.367921 18.34367,17.842486 2.96466,6.01966 3.13109,6.916826 3.13109,16.878994 0,9.85237 -0.19379,10.93051 -3.04763,16.95501 -3.61495,7.6312 -10.30444,14.66163 -16.99548,17.86166 -3.64668,1.74404 -6.79806,2.36704 -13.36208,2.64155 -7.63959,0.31948 -9.14803,0.0931 -13.63485,-2.04611 z"
       id="path11011"
       transform="scale(0.26458333)" />
    <path
       style="fill:#999999;stroke-width:0.955937"
       d="m 531.03018,222.49711 c -8.88415,-3.17476 -16.49397,-10.51812 -21.20539,-20.46289 -2.76575,-5.8379 -3.02032,-7.18139 -3.02032,-15.93965 0,-8.95915 0.20654,-9.98396 3.26378,-16.19409 3.85707,-7.83484 10.25248,-14.56584 17.37042,-18.28193 4.43993,-2.31797 6.23626,-2.68422 13.26234,-2.70398 7.26381,-0.0204 8.79654,0.30653 14.4335,3.07898 23.82261,11.71679 27.89969,44.86121 7.78027,63.24923 -6.43399,5.8803 -13.42117,8.58637 -22.0251,8.53011 -3.52364,-0.023 -7.96042,-0.59714 -9.8595,-1.27578 z"
       id="path11013"
       transform="scale(0.26458333)" />
    <path
       style="fill:#999999;stroke-width:0.955937"
       d="m 527.80202,299.41181 c -7.18581,-3.48945 -13.99418,-10.68148 -17.78954,-18.79196 -8.78223,-18.76721 -0.49738,-42.29084 17.99947,-51.1069 3.05039,-1.45389 6.99284,-2.32334 11.89697,-2.62371 6.67909,-0.40907 7.88884,-0.18993 13.5335,2.45152 8.67521,4.05962 14.23719,9.52198 18.51675,18.1851 3.41538,6.91375 3.56285,7.61706 3.52392,16.80621 -0.0366,8.65343 -0.32512,10.19666 -2.95239,15.79432 -3.84666,8.1957 -10.53708,15.46674 -17.25678,18.75438 -4.28423,2.09608 -7.01617,2.69435 -13.55545,2.96853 -7.47525,0.31341 -8.68952,0.10073 -13.91645,-2.43749 z"
       id="path11015"
       transform="scale(0.26458333)" />
    <path
       style="fill:#999999;stroke-width:0.955937"
       d="m 527.67781,377.53895 c -7.40607,-3.74461 -13.97964,-10.73751 -17.81854,-18.9552 -2.7125,-5.80649 -2.99169,-7.2813 -3.02172,-15.962 -0.0311,-9.00036 0.16028,-9.95724 3.24575,-16.22538 1.88519,-3.82978 5.33343,-8.70501 8.11269,-11.46999 6.55305,-6.51938 12.53351,-9.21133 21.71293,-9.77355 6.67909,-0.40907 7.88884,-0.18993 13.5335,2.45152 8.67245,4.05833 14.23695,9.52216 18.51675,18.18176 3.40169,6.88284 3.56455,7.6507 3.56455,16.80621 0,8.80418 -0.25021,10.12201 -3.03986,16.01081 -3.8437,8.11387 -10.48322,15.25016 -17.28445,18.57769 -4.18457,2.04732 -7.00384,2.66478 -13.48094,2.95253 -7.63076,0.33901 -8.58926,0.1619 -14.04066,-2.5944 z"
       id="path11017"
       transform="scale(0.26458333)" />
    <path
       style="fill:#999999;stroke-width:0.955937"
       d="m 600.12963,377.59017 c -7.7275,-3.73111 -13.98849,-10.09639 -17.75843,-18.05419 -2.83324,-5.9806 -3.02975,-7.07762 -3.02975,-16.91423 0,-9.95654 0.16721,-10.85849 3.12786,-16.87242 3.77968,-7.67763 10.15486,-14.19795 17.32469,-17.71913 4.52775,-2.22362 6.52164,-2.61131 13.42986,-2.61131 6.82246,0 8.98851,0.41041 13.6197,2.58059 6.80522,3.18894 13.62408,10.05708 17.39941,17.52515 2.70771,5.35619 2.8633,6.28635 2.8633,17.11719 0,10.79838 -0.16154,11.77233 -2.82543,17.03487 -3.98383,7.8701 -8.9616,13.13211 -15.95694,16.8681 -5.21786,2.78669 -7.12896,3.26856 -14.1456,3.56673 -7.43586,0.31598 -8.60793,0.10563 -14.04867,-2.52135 z"
       id="path11019"
       transform="scale(0.26458333)" />
    <path
       style="fill:#999999;stroke-width:0.955937"
       d="m 744.34886,377.53667 c -7.20781,-3.63269 -14.85841,-11.53006 -18.31482,-18.90556 -2.30574,-4.92012 -2.57305,-6.58122 -2.57305,-15.98929 0,-9.76374 0.20047,-10.89741 2.8633,-16.19256 3.56733,-7.09377 11.84861,-15.62185 18.13425,-18.67468 3.95766,-1.92218 6.23828,-2.32101 13.36208,-2.33673 7.99018,-0.0176 9.0111,0.20941 14.62281,3.25201 14.23748,7.71938 22.37971,24.59549 19.45483,40.3233 -3.41987,18.38943 -16.55251,30.38943 -34.07764,31.13857 -6.97284,0.29807 -8.14197,0.0711 -13.47176,-2.61506 z"
       id="path11021"
       transform="scale(0.26458333)" />
    <path
       style="fill:#999999;stroke-width:0.955937"
       d="m 675.03549,378.95362 c -16.42425,-6.29285 -27.07173,-25.24895 -23.86563,-42.48885 5.07711,-27.30079 32.92563,-40.3535 53.27763,-24.97144 16.00499,12.09659 20.40246,34.03616 10.28812,51.3289 -3.15887,5.40081 -10.91637,12.46246 -16.35979,14.89231 -5.73872,2.56167 -18.16644,3.22143 -23.34033,1.23908 z"
       id="path11023"
       transform="scale(0.26458333)" />
    <path
       style="fill:#999999;stroke-width:0.955937"
       d="m 744.34886,455.8108 c -7.22023,-3.65199 -14.87458,-11.5646 -18.29825,-18.91562 -2.28106,-4.89773 -2.55912,-6.62533 -2.5735,-15.98977 -0.0149,-9.69122 0.1992,-10.93926 2.7832,-16.22538 3.403,-6.96157 11.72915,-15.50086 18.19823,-18.66408 6.78394,-3.31718 19.82941,-3.34102 26.51421,-0.0485 14.94801,7.36256 23.7552,24.78386 20.86165,41.26593 -3.21083,18.28927 -16.3099,30.28746 -34.01378,31.15515 -7.02683,0.34439 -8.10071,0.1389 -13.47176,-2.57778 z"
       id="path11025"
       transform="scale(0.26458333)" />
    <path
       style="fill:#999999;stroke-width:0.955937"
       d="m 746.09925,534.88076 c -7.20812,-2.83845 -15.6573,-10.99251 -19.51945,-18.83765 -2.95025,-5.9928 -3.11881,-6.90372 -3.11881,-16.85405 0,-9.69621 0.21892,-10.96669 2.79932,-16.24544 3.40854,-6.97291 11.74118,-15.51201 18.19823,-18.64915 3.46276,-1.68237 6.82416,-2.41685 12.25073,-2.67685 7.02628,-0.33664 7.90275,-0.14866 14.49277,3.10831 11.37738,5.623 18.52185,15.51385 20.69971,28.6568 2.71058,16.35786 -6.22145,33.57291 -20.97123,40.41865 -7.45383,3.45951 -17.66037,3.90318 -24.83127,1.07938 z"
       id="path11027"
       transform="scale(0.26458333)" />
    <path
       style="fill:#999999;stroke-width:0.955937"
       d="m 746.09925,613.14435 c -7.20812,-2.83845 -15.6573,-10.99251 -19.51945,-18.83765 -2.95133,-5.99501 -3.11881,-6.90112 -3.11881,-16.87411 0,-9.973 0.16748,-10.87911 3.11881,-16.87412 4.03722,-8.20076 12.31894,-16.03783 19.99321,-18.91975 7.49413,-2.81428 17.78156,-2.40533 24.60968,0.9783 14.39774,7.13468 23.63171,25.50612 20.71181,41.20712 -2.32065,12.47863 -10.37214,23.32489 -20.96398,28.24083 -7.45383,3.45951 -17.66037,3.90318 -24.83127,1.07938 z"
       id="path11029"
       transform="scale(0.26458333)" />
    <path
       style="fill:#999999;stroke-width:0.955937"
       d="m 676.48951,692.06882 c -13.42134,-4.3852 -22.80314,-15.67384 -25.34138,-30.49199 -4.23511,-24.72441 18.02896,-48.23467 40.675,-42.95171 7.67501,1.79046 12.66295,4.81955 18.55857,11.2703 6.1152,6.691 8.90171,13.72976 9.50858,24.01875 0.92232,15.63725 -6.84424,29.06457 -20.9717,36.25722 -6.07644,3.09367 -16.15766,3.94651 -22.42907,1.89743 z"
       id="path11031"
       transform="scale(0.26458333)" />
    <path
       style="fill:#999999;stroke-width:0.955937"
       d="m 603.04239,691.6296 c -8.78539,-3.03601 -15.87076,-9.63437 -20.62863,-19.21076 -2.90022,-5.83738 -3.07231,-6.77295 -3.07231,-16.7026 0,-9.84436 0.19496,-10.93039 3.0405,-16.93718 6.64478,-14.02683 22.16328,-23.11236 35.28867,-20.66027 19.84304,3.70708 33.53735,23.79339 29.89942,43.85537 -1.62508,8.96174 -5.20295,15.45508 -12.03989,21.8507 -9.74195,9.11311 -20.92645,11.80004 -32.48776,7.80474 z"
       id="path11033"
       transform="scale(0.26458333)" />
    <path
       style="fill:#999999;stroke-width:0.955937"
       d="m 535.88719,771.20572 c -7.00036,-1.43615 -11.54595,-3.7536 -17.02503,-8.67976 -11.48736,-10.32812 -15.45635,-28.15694 -9.69574,-43.55355 3.7905,-10.13102 14.64058,-19.61571 25.17695,-22.00865 3.01562,-0.68488 5.48294,-1.64599 5.48294,-2.13579 0,-0.4898 -2.46931,-1.45136 -5.48735,-2.13679 -22.12429,-5.0247 -34.35858,-31.79851 -24.32648,-53.23663 5.266,-11.25318 13.9465,-18.35224 25.81364,-21.11085 13.69717,-3.18401 29.34025,5.94431 36.65774,21.39116 2.7864,5.88193 3.03986,7.21277 3.03986,15.96132 0,8.7536 -0.2525,10.07735 -3.04764,15.97794 -5.0976,10.76112 -14.58969,18.71635 -25.26502,21.17438 -2.4485,0.56377 -4.50972,1.44016 -4.5805,1.94753 -0.0708,0.50737 2.33863,1.48285 5.35425,2.16773 18.70322,4.24773 31.59658,25.78038 27.07317,45.21376 -4.48412,19.26458 -22.32322,32.48456 -39.17079,29.0282 z"
       id="path11035"
       transform="scale(0.26458333)" />
    <path
       style="fill:#999999;stroke-width:0.955937"
       d="m 537.34636,771.05152 c -10.92704,-2.68129 -18.43292,-7.68996 -23.80656,-15.88609 -4.68997,-7.15338 -6.57031,-14.57714 -6.07426,-23.98177 0.85525,-16.21455 10.74038,-28.60784 26.77891,-33.57351 3.01839,-0.93452 5.48799,-2.20912 5.48799,-2.83244 0,-0.62332 -2.0401,-1.68614 -4.53356,-2.36182 -17.05867,-4.62255 -27.9172,-19.11523 -27.9172,-37.26056 0,-16.30046 10.55315,-30.61449 26.09174,-35.39021 7.70107,-2.36689 12.69054,-1.98851 20.4158,1.54823 6.51046,2.98058 14.50804,11.10263 18.06007,18.34113 2.48959,5.07338 2.71999,6.43226 2.71999,16.0417 0,9.76981 -0.1988,10.89221 -2.8633,16.16518 -5.08755,10.06815 -13.83551,17.26938 -25.05389,20.62411 -2.23099,0.66715 -4.05635,1.73266 -4.05635,2.3678 0,0.63515 2.50743,1.85836 5.57206,2.71825 10.57595,2.96746 18.57926,10.1103 23.73593,21.18399 3.67451,7.89079 4.20451,19.48844 1.25048,27.36299 -5.36243,14.29459 -16.33823,23.40444 -30.08125,24.96728 -2.09975,0.23878 -4.67673,0.22337 -5.7266,-0.0343 z"
       id="path11037"
       transform="scale(0.26458333)" />
    <path
       style="fill:#999999;stroke-width:0.955937"
       d="m 528.68987,847.24112 c -10.4432,-5.0483 -16.77617,-12.2065 -20.49573,-23.16648 -1.7035,-5.0195 -1.9868,-7.50249 -1.57002,-13.76015 0.2797,-4.19951 1.20546,-9.61327 2.05725,-12.03058 3.24131,-9.19861 14.9903,-20.53188 23.73764,-22.89771 6.29029,-1.7013 16.80619,-0.62476 22.86812,2.34107 6.71932,3.28745 13.36891,10.45444 17.19673,18.53477 2.7864,5.88193 3.03986,7.21277 3.03986,15.96132 0,8.73573 -0.25589,10.08445 -3.02033,15.91958 -6.3001,13.29812 -17.03228,20.82609 -30.6852,21.52379 -6.58406,0.33646 -7.92833,0.0881 -13.12832,-2.42561 z"
       id="path11039"
       transform="scale(0.26458333)" />
    <path
       style="fill:#999999;stroke-width:0.955937"
       d="m 531.94825,926.91489 c -10.19283,-3.81032 -16.88314,-10.0648 -22.09933,-20.65971 -2.84282,-5.7742 -3.04347,-6.84881 -3.02963,-16.22538 0.0136,-9.22778 0.24568,-10.50103 2.8633,-15.70987 3.90225,-7.76513 10.62063,-14.83837 17.31642,-18.23104 5.01439,-2.54073 6.4872,-2.82487 14.6423,-2.82487 8.23607,0 9.5285,0.25562 14.10088,2.78888 15.85002,8.7815 23.76911,28.23455 18.45051,45.32323 -4.93885,15.86854 -16.87049,25.74456 -32.02197,26.50513 -4.16569,0.2091 -8.06377,-0.1594 -10.22248,-0.96637 z"
       id="path11041"
       transform="scale(0.26458333)" />
    <path
       style="fill:#999999;stroke-width:0.955937"
       d="m 458.46423,926.36275 c -12.3398,-4.82617 -21.25399,-16.00146 -23.80425,-29.8422 -2.88713,-15.66904 5.71189,-32.91267 20.21316,-40.5335 4.62269,-2.42935 6.11461,-2.71386 14.23118,-2.71386 8.00461,0 9.64023,0.30178 13.95774,2.5753 14.17701,7.46531 22.37134,23.79466 20.18833,40.23056 -1.80183,13.56599 -12.13853,26.42768 -24.24452,30.16684 -7.6882,2.37464 -14.66732,2.41434 -20.54164,0.11686 z"
       id="path11043"
       transform="scale(0.26458333)" />
    <path
       style="fill:#999999;stroke-width:0.955937"
       d="m 387.02814,926.65789 c -9.42735,-3.43631 -16.58757,-10.26019 -21.38195,-20.37757 -2.69925,-5.69613 -2.96095,-7.09351 -2.95772,-15.79337 0.005,-12.99989 2.2666,-18.67009 10.88517,-27.28866 8.24207,-8.24207 14.46125,-10.78133 24.97061,-10.19538 9.01042,0.50238 14.85003,3.15745 21.46244,9.75822 8.89118,8.87555 13.31868,22.2502 11.17733,33.76469 -2.29409,12.33585 -10.68156,23.82149 -20.76789,28.43917 -6.8991,3.15851 -17.30144,3.91147 -23.38799,1.6929 z"
       id="path11045"
       transform="scale(0.26458333)" />
    <path
       style="fill:#999999;stroke-width:0.955937"
       d="m 316.39488,927.29457 c -16.07646,-4.90796 -28.05715,-23.05861 -26.45873,-40.08477 1.46332,-15.58708 13.08812,-30.16663 26.74354,-33.54113 6.43286,-1.58968 16.44107,-0.6889 21.59714,1.94383 6.67124,3.40638 14.06917,11.04986 17.52002,18.10155 2.8642,5.85288 3.07034,6.94697 3.07034,16.29568 0,9.22971 -0.23398,10.51532 -2.96126,16.27059 -5.05673,10.67101 -12.48875,17.46379 -22.29266,20.37524 -5.38174,1.59821 -13.13406,1.88591 -17.21839,0.63901 z"
       id="path11047"
       transform="scale(0.26458333)" />
    <path
       style="fill:#999999;stroke-width:0.955937"
       d="m 241.62171,848.08645 c -12.3442,-4.97679 -20.7834,-15.79087 -23.54939,-30.17645 -2.29359,-11.92865 2.54512,-24.96764 12.83872,-34.59679 7.73356,-7.23437 13.06594,-9.21714 23.06279,-8.57558 16.8027,1.07833 29.71635,13.45641 32.85762,31.4949 2.77326,15.92522 -6.12815,33.33906 -20.68155,40.45938 -7.16643,3.50621 -17.79209,4.11032 -24.52819,1.39454 z"
       id="path11049"
       transform="scale(0.26458333)" />
    <path
       style="fill:#999999;stroke-width:0.955937"
       d="m 242.99479,770.27877 c -10.32404,-3.35917 -20.23377,-13.77202 -23.46654,-24.65796 -3.3181,-11.17325 -0.78442,-26.82548 5.64284,-34.85949 11.33639,-14.1704 27.24851,-18.4302 41.62726,-11.14393 13.84907,7.01785 22.86726,25.04459 20.07781,40.13412 -3.34522,18.09594 -16.56249,30.80626 -32.83183,31.57256 -4.21277,0.19843 -8.46276,-0.20363 -11.04954,-1.0453 z"
       id="path11051"
       transform="scale(0.26458333)" />
    <path
       style="fill:#999999;stroke-width:0.955937"
       d="m 246.29156,692.7951 c -3.12347,-0.74259 -7.4332,-2.37818 -9.57718,-3.63464 -5.58967,-3.27576 -12.6214,-11.17205 -15.59105,-17.50799 -2.28851,-4.88268 -2.55794,-6.56336 -2.55794,-15.95629 0,-9.81408 0.19759,-10.91587 3.02975,-16.89417 5.13764,-10.84484 14.96462,-18.56332 26.3191,-20.67202 17.15612,-3.18614 35.27557,11.41242 38.88751,31.33107 3.26158,17.98653 -8.58493,37.89202 -25.2681,42.45756 -8.03552,2.19901 -9.35913,2.27513 -15.24209,0.87648 z"
       id="path11053"
       transform="scale(0.26458333)" />
    <path
       style="fill:#999999;stroke-width:0.955937"
       d="m 171.79812,692.44284 c -5.46049,-1.70588 -13.29222,-7.18381 -17.27147,-12.08059 -6.18775,-7.61451 -8.43299,-14.28666 -8.46092,-25.14329 -0.0212,-8.23057 0.25649,-9.65917 3.00953,-15.4841 5.46699,-11.56718 14.0222,-18.61269 25.9748,-21.39116 13.45139,-3.12688 28.73274,5.52326 36.10331,20.43659 3.43537,6.95101 3.59429,7.69671 3.59429,16.86639 0,8.7913 -0.25266,10.12713 -3.02033,15.96908 -6.22864,13.14729 -17.07134,20.84373 -30.17504,21.41905 -3.78997,0.1664 -8.17935,-0.1 -9.75417,-0.59197 z"
       id="path11055"
       transform="scale(0.26458333)" />
    <path
       style="fill:#999999;stroke-width:0.955937"
       d="m 99.261139,692.11839 c -12.923225,-4.28055 -22.323051,-15.4374 -25.369374,-30.11147 -3.217219,-15.49726 6.267296,-34.13386 20.849375,-40.96799 4.670819,-2.18906 6.73538,-2.56568 14.06434,-2.56568 7.75851,0 9.09058,0.27713 13.76283,2.8633 18.04287,9.98705 25.33089,32.06142 16.78061,50.82614 -3.03794,6.66717 -10.97263,14.89727 -17.38921,18.0366 -6.18738,3.02721 -16.6759,3.91398 -22.698571,1.9191 z"
       id="path11057"
       transform="scale(0.26458333)" />
    <path
       style="fill:#999999;stroke-width:0.955937"
       d="M 26.322431,691.88598 C 16.699636,688.3854 9.7510201,681.79186 4.9040796,671.56209 2.1563509,665.76284 1.9116503,664.4519 1.9425408,655.69618 c 0.02705,-7.66714 0.4653367,-10.63023 2.2284003,-15.06534 2.9004161,-7.29622 10.9816929,-16.00641 18.0887769,-19.49652 4.710667,-2.31329 6.541498,-2.66107 14.008775,-2.66107 10.497938,0 15.577772,2.12883 23.189855,9.7183 15.157013,15.11199 15.156672,39.834 -7.63e-4,54.99143 -8.712614,8.71262 -22.87986,12.43367 -33.135154,8.703 z"
       id="path11059"
       transform="scale(0.26458333)" />
    <path
       style="fill:#999999;stroke-width:0.955937"
       d="M 24.479981,613.12828 C 17.547581,610.38811 8.0054442,600.98678 4.5885908,593.53041 -0.30141782,582.85928 0.63539785,567.79168 6.8479826,557.1907 10.40252,551.12534 18.729056,544.00312 25.057082,541.61529 c 7.208791,-2.72018 17.556923,-2.28425 24.573487,1.0352 10.238412,4.84365 18.4227,16.0815 20.724004,28.45614 2.886048,15.51893 -6.059992,33.45084 -20.332111,40.75475 -7.131267,3.64951 -18.134023,4.19524 -25.542481,1.2669 z"
       id="path11063"
       transform="scale(0.26458333)" />
    <path
       style="fill:#999999;stroke-width:0.955937"
       d="M 24.547126,534.89058 C 17.245885,532.00123 8.8248382,523.83481 5.0746465,516.00688 -3.8190831,497.44264 4.1866389,473.63881 22.459055,464.31692 c 5.594295,-2.85399 16.111936,-3.5697 22.92399,-1.55994 13.758889,4.0593 25.72229,20.72602 25.72229,35.83481 0,10.43946 -5.463946,22.92255 -12.884859,29.43714 -9.252246,8.12226 -23.269906,10.97865 -33.67335,6.86165 z"
       id="path11065"
       transform="scale(0.26458333)" />
    <path
       style="fill:#999999;stroke-width:0.955937"
       d="M 22.730779,455.77684 C 15.016111,451.8766 7.0909171,443.3835 4.2490596,435.97075 -3.1808997,416.59031 4.513438,395.8285 22.63354,386.36347 c 4.339077,-2.26651 6.180282,-2.63847 13.157736,-2.65813 7.013218,-0.0198 8.863016,0.34558 13.64914,2.69574 23.086347,11.33623 28.551116,42.51083 10.781987,61.50747 -6.415998,6.85922 -13.455568,9.99882 -23.476693,10.47043 -7.575296,0.35652 -8.50366,0.18415 -14.014931,-2.60214 z"
       id="path11067"
       transform="scale(0.26458333)" />
    <path
       style="fill:#0000ff;stroke-width:0.955937"
       d="m 748.10846,692.07034 c -8.86806,-2.8795 -17.76263,-11.11868 -22.04037,-20.41634 -2.19874,-4.77897 -2.51473,-6.70753 -2.5364,-15.48061 -0.0314,-12.7227 2.07261,-18.56471 9.62369,-26.72078 11.39103,-12.30367 25.56378,-14.93756 39.76527,-7.39005 9.98822,5.30834 16.93124,15.4686 19.05904,27.89057 3.61497,21.10407 -12.82003,42.47681 -33.20464,43.18065 -3.69502,0.12758 -8.46233,-0.34771 -10.66659,-1.06344 z"
       id="path11069"
       transform="scale(0.26458333)" />
    <path
       style="fill:#008000;stroke-width:0.955937"
       d="m 243.21286,926.87519 c -16.49621,-5.41467 -27.94794,-24.75365 -25.08541,-42.36271 1.8985,-11.67878 10.14094,-23.28148 20.36261,-28.66399 4.31752,-2.27352 5.95313,-2.5753 13.95774,-2.5753 8.10542,0 9.61182,0.28631 14.20264,2.6994 14.46738,7.60452 23.31066,25.23505 20.29135,40.45412 -2.42312,12.21394 -10.71399,23.59813 -20.76865,28.51742 -6.1097,2.9892 -16.95713,3.90151 -22.96028,1.93106 z"
       id="path11140"
       transform="scale(0.26458333)" />
    <path
       style="fill:#ff0000;stroke-width:0.955937"
       d="m 527.67781,142.74818 c -7.38232,-3.7326 -13.91976,-10.67413 -17.83349,-18.93582 -2.78639,-5.88193 -3.03985,-7.21277 -3.03985,-15.96132 0,-8.735728 0.25588,-10.084453 3.02032,-15.919582 4.04007,-8.527699 9.64256,-14.400759 17.36295,-18.201494 5.52521,-2.720054 7.2455,-3.101846 13.97635,-3.101846 6.73086,0 8.45114,0.381792 13.97636,3.101846 7.72178,3.801424 13.32451,9.675548 17.36054,18.201494 2.76057,5.831593 3.01813,7.189146 3.02033,15.919582 0.002,8.75116 -0.25023,10.07763 -3.03746,15.96132 -3.8437,8.11387 -10.48322,15.25016 -17.28445,18.57769 -4.18457,2.04732 -7.00384,2.66478 -13.48094,2.95253 -7.63076,0.33901 -8.58926,0.1619 -14.04066,-2.5944 z"
       id="path11142"
       transform="scale(0.26458333)" />
    <path
       style="fill:#ffff00;stroke-width:1.3519"
       d="m 96.624249,222.50137 c -11.265064,-4.13348 -20.841203,-16.64734 -22.86401,-29.87812 -4.603382,-30.10979 24.103627,-53.95738 49.314281,-40.96653 26.71087,13.76389 26.62207,55.50899 -0.14741,69.29927 -7.07796,3.6462 -18.71424,4.32987 -26.302861,1.54538 z"
       id="path11144"
       transform="scale(0.26458333)" />
    <path
       style="fill:#ffff00;stroke-width:1.3519"
       d="m 27.661619,223.47615 c -9.777361,-2.97414 -17.7052335,-9.95134 -23.1059877,-20.33523 -4.51273577,-8.67652 -4.51273577,-25.06782 0,-33.74434 14.5571387,-27.98863 48.4381637,-28.57962 62.1776057,-1.08456 10.490774,20.99389 0.833759,46.99145 -20.213833,54.41747 -6.064834,2.1398 -13.331964,2.42754 -18.857785,0.74666 z"
       id="path11146"
       transform="scale(0.26458333)" />
    <path
       style="fill:#ffff00;stroke-width:1.3519"
       d="M 23.9496,144.20377 C 15.943818,141.37019 6.8764065,131.87942 3.4656858,122.76345 -4.0675003,102.62921 4.951878,80.372836 23.957828,72.196696 c 17.291658,-7.438671 38.44989,2.677341 44.842961,21.439974 1.134277,3.328919 2.062322,7.76657 2.062322,9.86145 0,5.96264 2.275043,4.46027 3.001166,-1.98188 0.919639,-8.159009 4.768349,-15.562033 11.497096,-22.114755 22.344117,-21.759593 57.641587,-4.258067 57.641587,28.580395 0,16.00803 -7.77107,28.73377 -21.52334,35.24622 -19.10271,9.04617 -41.515085,-2.82125 -46.747942,-24.75317 -2.510417,-10.52165 -2.884859,-10.82878 -4.076303,-3.34361 -3.675714,23.09246 -25.39846,36.61398 -46.705775,29.07245 z"
       id="path11148"
       transform="scale(0.26458333)" />
    <path
       style="fill:#ffff00;stroke-width:1.3519"
       d="M 22.94615,142.57521 C 15.869996,139.34302 7.104387,129.66705 4.0812452,121.75106 0.58548995,112.59756 1.7023672,97.57449 6.4854014,89.412858 16.08529,73.031887 33.609033,66.584192 49.266734,73.671872 c 11.128758,5.03759 17.483413,13.41398 20.363137,26.841668 0.801315,3.7364 1.970938,6.79346 2.599165,6.79346 0.628226,0 1.823926,-3.28371 2.657109,-7.29714 3.504276,-16.880004 17.677734,-29.191376 33.521055,-29.117105 12.19667,0.05718 23.33901,7.398564 29.65987,19.542072 4.91317,9.439114 5.14682,25.483863 0.50122,34.419223 -4.42658,8.51409 -9.25592,13.32677 -17.08867,17.0297 -19.04239,9.0023 -39.81811,-1.74529 -46.006267,-23.79972 -1.246536,-4.44261 -2.721679,-8.07749 -3.278097,-8.07749 -0.556418,0 -1.720474,2.81493 -2.586792,6.25539 -3.327714,13.21555 -9.510263,21.12695 -20.34173,26.02996 -7.706845,3.48862 -19.036324,3.61057 -26.320584,0.28332 z"
       id="path11150"
       transform="scale(0.26458333)" />
  </g>
</svg>
