<?xml version="1.0" encoding="UTF-8" standalone="no"?>
<!-- Created with Inkscape (http://www.inkscape.org/) -->

<svg
   width="210mm"
   height="297mm"
   viewBox="0 0 210 297"
   version="1.1"
   id="svg5"
   sodipodi:docname="Nový dokument 1.2024_04_12_11_05_46.0.svg"
   inkscape:version="1.2.2 (732a01da63, 2022-12-09)"
   xmlns:inkscape="http://www.inkscape.org/namespaces/inkscape"
   xmlns:sodipodi="http://sodipodi.sourceforge.net/DTD/sodipodi-0.dtd"
   xmlns="http://www.w3.org/2000/svg"
   xmlns:svg="http://www.w3.org/2000/svg">
  <sodipodi:namedview
     id="namedview7"
     pagecolor="#ffffff"
     bordercolor="#000000"
     borderopacity="0.25"
     inkscape:showpageshadow="2"
     inkscape:pageopacity="0.0"
     inkscape:pagecheckerboard="0"
     inkscape:deskcolor="#d1d1d1"
     inkscape:document-units="mm"
     showgrid="false"
     inkscape:zoom="1.4503086"
     inkscape:cx="483.00064"
     inkscape:cy="756.73548"
     inkscape:window-width="1920"
     inkscape:window-height="1001"
     inkscape:window-x="-9"
     inkscape:window-y="-9"
     inkscape:window-maximized="1"
     inkscape:current-layer="layer1" />
  <defs
     id="defs2">
    <clipPath
       clipPathUnits="userSpaceOnUse"
       id="clipPath1826">
      <path
         id="path1828"
         style="fill:#ff0000;fill-opacity:1;fill-rule:nonzero;stroke:none;stroke-width:1.97529"
         d="M 31.152209,-1713.0865 14.798262,173.35173 148.97499,1976.5856 165.32894,90.147393 Z m -0.0065,1197.95151 c 0.0249,0.23954 0.05397,1.45093 0.08804,3.9682 0.05418,4.00491 0.02969,1.65698 0.06714,7.18415 0.0047,3.57307 0.01191,5.2393 -0.0033,8.43425 0.144056,3.78637 0.247347,8.32182 0.379327,13.42187 0.06991,4.363 0.219045,12.63446 0.240372,18.60984 0.01925,5.39822 0.01625,11.4458 -0.0143,17.32216 -0.01833,3.52914 -0.07268,6.82603 -0.125455,9.57773 -0.170844,8.90596 -0.215578,8.47842 -0.40175,11.52733 -0.206467,2.02232 -0.253732,3.16555 -0.458569,2.16117 -0.07375,-0.3621 -0.144214,-1.29171 -0.213564,-2.25066 -0.08055,-1.11425 -0.160486,-2.32 -0.235692,-3.97237 -0.125902,-2.76462 -0.285381,-8.60213 -0.395192,-12.33543 -0.120199,-5.76084 -0.219886,-9.21566 -0.291582,-17.1009 -0.02794,-3.07247 -0.05669,-6.21301 -0.07342,-9.55814 -0.03988,-0.75615 -0.07924,-1.60841 -0.119535,-2.31783 -0.03673,-2.21238 -0.108058,-3.37943 -0.110188,-6.61761 -0.0043,-6.51743 0.03358,-13.73923 0.09267,-20.29183 0.02363,-2.63087 0.08836,-3.8448 0.13727,-5.24134 0.184992,-5.27509 0.373995,-5.29075 0.5557,-5.25001 0.07839,0.24545 0.158322,0.25298 0.235191,0.74719 0.07992,0.52272 0.157925,1.3429 0.235447,2.20412 0.09487,1.05317 0.18326,2.11432 0.269355,3.43456 0.03384,-7.37219 0.0723,-14.33345 0.14201,-13.65644 z m -0.288707,13.85106 c -5.44e-4,-6.6e-4 -8.62e-4,0.004 -0.0012,0.0151 -0.01405,0.33882 -0.02771,0.89035 -0.03919,1.48485 -9.84e-4,0.0501 -0.002,0.10029 -0.0029,0.14617 0.01707,-0.38051 0.03415,-0.74989 0.05025,-1.27421 0.0033,-0.12536 -0.003,-0.3647 -0.007,-0.37254 z m -0.0077,28.89104 c -0.0047,0.10158 -0.0093,0.20197 -0.01394,0.30704 -0.06048,0.9656 -0.121092,2.12609 -0.181777,2.8795 -0.06563,0.81266 -0.131141,1.30328 -0.196453,1.78475 -0.01424,0.10483 -0.02696,0.20167 -0.04015,0.29532 0.01908,0.81883 0.03791,1.65027 0.05701,2.4681 0.08246,2.68299 0.232837,7.81978 0.324473,9.77597 0.05157,1.05276 0.107873,1.69531 0.163062,2.3768 0.05584,0.68709 0.111402,1.41795 0.170272,1.66885 0.08756,0.34496 0.148293,-0.54804 0.230604,-1.63537 -0.012,-0.76329 -0.01925,-2.01841 -0.03152,-2.74439 -0.03153,-1.86076 -0.06225,-3.75063 -0.09359,-5.62087 -0.08878,-3.03746 -0.223575,-7.87608 -0.318945,-10.10395 -0.0215,-0.5076 -0.04462,-0.99413 -0.06903,-1.45367 z m 0.607321,16.42399 c -5.62e-4,0.001 -7.38e-4,0.0218 -0.0015,0.0435 -0.01399,0.62787 -0.02308,1.71081 -0.03342,2.61441 0.02873,-0.39017 0.0577,-0.74546 0.08415,-1.59219 0.01336,-0.43682 -0.02679,-0.17633 -0.03898,-0.39713 -0.0046,-0.1091 -0.0066,-0.67606 -0.01035,-0.66507 z" />
    </clipPath>
    <clipPath
       clipPathUnits="userSpaceOnUse"
       id="clipPath1836">
      <path
         id="path1838"
         style="fill:#ff0000;fill-opacity:1;fill-rule:nonzero;stroke:none;stroke-width:1.97529"
         d="M 113.2503,-2535.6256 13.671144,116.54322 65.750088,2742.3123 165.32924,90.143465 Z M 39.479128,-211.8777 c 0.0162,0.65351 0.01858,2.18172 0.0019,4.87421 -0.02656,4.28312 -0.005,1.90552 -0.07233,7.1319 -0.05955,3.02035 -0.08318,4.52131 -0.152366,6.86609 0.05112,5.75256 0.05548,11.37239 0.07337,17.98226 -0.02,4.86575 -0.04429,14.3949 -0.132798,19.69351 -0.07997,4.78655 -0.189749,9.69795 -0.319101,13.96356 -0.07767,2.562 -0.180805,4.27252 -0.272975,5.56405 -0.29833,4.17961 -0.327481,3.00776 -0.534475,2.09603 -0.205445,-2.12719 -0.264547,-2.05547 -0.414949,-6.63845 -0.05414,-1.65039 -0.09552,-3.7067 -0.135456,-5.76659 -0.04638,-2.39299 -0.09063,-4.84973 -0.123079,-7.58655 -0.05434,-4.58036 -0.08174,-12.30039 -0.105678,-17.38106 0.0035,-6.93641 -0.01706,-11.60263 0.06397,-19.39384 0.03157,-3.03582 0.06368,-6.14259 0.109302,-9.19663 -0.01933,-1.35263 -0.03654,-2.7748 -0.05704,-4.09664 0.0091,-2.49088 -0.02878,-4.7579 0.02693,-7.45634 0.112134,-5.43084 0.271362,-10.6673 0.436159,-14.96448 0.06609,-1.72703 0.140791,-1.53633 0.205735,-1.78599 0.245524,-0.93818 0.401022,2.51656 0.549525,5.88376 0.06002,1.63972 0.125534,3.11247 0.179894,4.92864 0.05636,1.89558 0.105869,4.0003 0.154253,6.12987 0.05922,2.60547 0.112988,5.09864 0.160268,7.76247 0.158601,-5.43357 0.313704,-10.44494 0.358941,-8.60998 z m -0.48287,6.07837 c -4.35e-4,-0.0105 -7.84e-4,-0.0123 -0.0013,-0.0102 -0.01755,0.0206 -0.03855,0.22284 -0.05853,0.50049 -0.0017,0.0231 -0.0034,0.0462 -0.005,0.0665 0.02077,7.6e-4 0.04135,0.0107 0.06388,-0.12451 0.0049,-0.0427 0.004,-0.35401 8.85e-4,-0.43386 z m -0.518973,23.58524 c -0.0057,-0.003 -0.01119,-0.004 -0.01689,-0.004 -0.0668,-0.31666 -0.137172,-0.4756 -0.200378,-0.97024 -0.06831,-0.53664 -0.130825,-1.33571 -0.193006,-2.13858 -0.01356,-0.17524 -0.02572,-0.32905 -0.03822,-0.49415 0.0011,1.02249 0.0019,2.05091 0.003,3.07294 0.02011,3.71622 0.05247,10.69386 0.09301,13.98162 0.02368,1.81081 0.05851,3.37142 0.09174,4.94364 0.03367,1.5888 0.06633,3.20839 0.110225,4.49451 0.06579,1.88976 0.13151,2.27064 0.218402,2.88781 0.0037,-0.84699 0.02001,-2.01078 0.02281,-2.83219 0.0071,-2.10665 0.01543,-4.22224 0.02288,-6.3332 -0.01901,-4.12333 -0.04386,-10.57017 -0.08266,-14.14958 -0.0087,-0.81134 -0.019,-1.63502 -0.0309,-2.46024 z m 0.207344,24.63073 c -4.88e-4,-0.009 -9.92e-4,0.004 -0.002,0.009 -0.02263,0.25888 -0.04931,0.98156 -0.07383,1.53402 0.03052,0.20675 0.06062,0.44648 0.09736,0.23638 0.01872,-0.1137 -0.01888,-0.63642 -0.02497,-1.04133 -0.0018,-0.17364 0.0066,-0.6757 0.0033,-0.73602 z" />
    </clipPath>
    <clipPath
       clipPathUnits="userSpaceOnUse"
       id="clipPath1846">
      <path
         id="path1848"
         style="fill:#ff0000;fill-opacity:1;fill-rule:nonzero;stroke:none;stroke-width:1.97529"
         d="M 45.434626,-2146.2185 14.797842,173.35567 134.69221,2409.7185 165.32899,90.144301 Z M 31.294132,-524.89186 c 0.02372,0.34112 0.04768,1.66328 0.07133,4.30117 0.03761,4.19668 0.02277,1.76659 0.03767,7.40313 -0.0097,3.56252 -0.0093,5.24481 -0.03721,8.3496 0.127608,4.35394 0.21178,9.28105 0.322127,14.88739 0.05177,4.6172 0.166361,13.43966 0.163463,19.45355 -0.0026,5.43294 -0.02995,11.41716 -0.08388,17.11702 -0.03238,3.42319 -0.09953,6.46624 -0.162943,8.9752 -0.205246,8.12021 -0.247883,7.51012 -0.444759,9.75876 -0.21287,1.14622 -0.264337,2.08317 -0.463411,0.23492 -0.07167,-0.66592 -0.137803,-1.88092 -0.202712,-3.12036 -0.07539,-1.44007 -0.1498,-2.96827 -0.217725,-4.91968 -0.113718,-3.26525 -0.248365,-9.71726 -0.342229,-13.87609 -0.09601,-6.21255 -0.180953,-10.05311 -0.220315,-18.17038 -0.01534,-3.16288 -0.03121,-6.39667 -0.03434,-9.78326 -0.0365,-0.91572 -0.07211,-1.92462 -0.109203,-2.79573 -0.02752,-2.34663 -0.09355,-3.80063 -0.08263,-7.02045 0.02199,-6.4804 0.08859,-13.48398 0.173552,-19.73561 0.03402,-2.51042 0.103095,-3.44479 0.157209,-4.6261 0.204663,-4.46101 0.39214,-3.69011 0.572154,-2.89364 0.07674,0.56955 0.155973,0.90962 0.230206,1.71952 0.07715,0.85087 0.151194,1.98873 0.224599,3.16528 0.08983,1.43905 0.17321,2.85907 0.253269,4.52645 0.06322,-7.1694 0.129372,-13.91211 0.195771,-12.95073 z m -0.342018,12.53331 c -5.37e-4,-0.003 -8.72e-4,6.4e-4 -0.0013,0.01 -0.01529,0.27753 -0.03106,0.76756 -0.04483,1.30931 -0.0012,0.0456 -0.0024,0.0913 -0.0035,0.1328 0.01846,-0.30626 0.03688,-0.60148 0.05496,-1.0544 0.0038,-0.11063 -0.0015,-0.374 -0.0054,-0.39841 z m -0.123919,28.61601 c -0.0051,0.0812 -0.01,0.16174 -0.01505,0.24647 -0.06386,0.70581 -0.12863,1.60436 -0.191837,2.09893 -0.06834,0.53275 -0.135283,0.74665 -0.201983,0.95231 -0.01455,0.0447 -0.02755,0.0878 -0.04101,0.12576 0.01562,0.89133 0.03096,1.79416 0.0466,2.68458 0.07097,3.00352 0.199412,8.72285 0.282405,11.04388 0.0469,1.25851 0.100144,2.12991 0.152127,3.03531 0.05261,0.91367 0.10476,1.86957 0.162125,2.36331 0.08544,0.70639 0.149251,0.0736 0.235245,-0.66209 -0.0088,-0.8068 -0.01096,-2.08153 -0.02021,-2.85248 -0.02378,-1.97631 -0.04663,-3.97809 -0.07018,-5.96303 -0.07581,-3.38131 -0.190001,-8.74013 -0.275605,-11.34611 -0.01928,-0.5928 -0.04024,-1.17142 -0.0626,-1.72866 z m 0.536123,18.81292 c -5.64e-4,-8.8e-4 -8.2e-4,0.0185 -0.0016,0.037 -0.0164,0.56436 -0.02977,1.6004 -0.04366,2.45339 0.03006,-0.26733 0.06022,-0.49909 0.08986,-1.22864 0.015,-0.37758 -0.02586,-0.28634 -0.03705,-0.55599 -0.0041,-0.12724 -0.0038,-0.6977 -0.0076,-0.70253 z" />
    </clipPath>
    <clipPath
       clipPathUnits="userSpaceOnUse"
       id="clipPath1856">
      <path
         id="path1858"
         style="fill:#ff0000;fill-opacity:1;fill-rule:nonzero;stroke:none;stroke-width:1.97529"
         d="M 29.51875,-1646.4663 14.797877,173.37061 150.60818,1909.981 165.32905,90.144113 Z m -0.473157,1239.0749 c 0.02502,0.22558 0.05475,1.42053 0.09018,3.91837 0.05634,3.974 0.03058,1.64013 0.07102,7.14551 0.0066,3.56992 0.01474,5.23186 0.0013,8.43483 0.146083,3.70524 0.251811,8.18225 0.386529,13.20773 0.07226,4.32324 0.225844,12.51007 0.2504,18.47262 0.02217,5.38663 0.02243,11.43498 -0.0049,17.32753 -0.01642,3.53886 -0.06897,6.86564 -0.120257,9.64644 -0.166002,9.00015 -0.21096,8.59768 -0.395455,11.75024 -0.205342,2.13747 -0.251981,3.30695 -0.457331,2.41727 -0.07393,-0.32082 -0.144891,-1.21088 -0.214749,-2.1309 -0.08114,-1.06905 -0.161716,-2.22991 -0.237805,-3.83998 -0.127377,-2.6938 -0.289989,-8.44125 -0.401802,-12.11258 -0.123297,-5.69276 -0.224837,-9.09131 -0.300787,-16.93527 -0.02959,-3.05639 -0.06004,-6.18037 -0.07857,-9.51564 -0.04028,-0.73374 -0.0801,-1.56386 -0.120771,-2.25064 -0.03793,-2.19151 -0.10987,-3.31849 -0.11375,-6.555 -0.0078,-6.51405 0.02615,-13.75592 0.08169,-20.34058 0.02221,-2.64369 0.08627,-3.89363 0.134415,-5.31731 0.182111,-5.37774 0.371077,-5.49908 0.552777,-5.55995 0.07851,0.20158 0.158435,0.16441 0.235559,0.61556 0.08019,0.47795 0.158627,1.25439 0.236604,2.07213 0.09542,0.99996 0.184375,2.01153 0.271171,3.28342 0.02985,-7.39 0.06454,-14.37171 0.134603,-13.73378 z m -0.281173,14.01041 c -5.44e-4,-3.6e-4 -8.59e-4,0.005 -0.0012,0.0158 -0.01386,0.34662 -0.02722,0.9057 -0.03838,1.50653 -9.57e-4,0.0507 -0.0019,0.10137 -0.0028,0.14778 0.01687,-0.39 0.03374,-0.76887 0.04955,-1.30212 0.0032,-0.12717 -0.0032,-0.36298 -0.0072,-0.36858 z m 0.0079,28.89099 c -0.0046,0.10419 -0.0091,0.20711 -0.01377,0.31479 -0.05995,0.99927 -0.119924,2.19348 -0.180192,2.98071 -0.06518,0.84923 -0.130417,1.37641 -0.195459,1.89433 -0.01419,0.11278 -0.02685,0.21672 -0.03999,0.31773 0.01952,0.80804 0.0388,1.62882 0.05834,2.43585 0.08389,2.63647 0.237031,7.68839 0.32971,9.59305 0.05214,1.02376 0.108774,1.63473 0.164323,2.28526 0.05621,0.65576 0.112153,1.35544 0.171149,1.57338 0.08773,0.29595 0.147974,-0.63087 0.229684,-1.76407 -0.01241,-0.75647 -0.02034,-2.00734 -0.033,-2.72635 -0.03253,-1.84284 -0.06426,-3.71525 -0.09661,-5.56769 -0.09041,-2.98735 -0.227801,-7.74986 -0.324362,-9.92407 -0.02177,-0.4955 -0.04515,-0.96903 -0.0698,-1.41485 z m 0.616111,16.08191 c -5.61e-4,0.002 -7.26e-4,0.0222 -0.0015,0.0443 -0.01365,0.63559 -0.02215,1.72346 -0.032,2.6327 0.02852,-0.40618 0.05729,-0.77762 0.08328,-1.63901 0.01312,-0.44423 -0.02689,-0.16132 -0.03919,-0.37528 -0.0046,-0.10652 -0.0069,-0.67228 -0.01071,-0.65917 z" />
    </clipPath>
    <clipPath
       clipPathUnits="userSpaceOnUse"
       id="clipPath1866">
      <path
         id="path1868"
         style="fill:#ff0000;fill-opacity:1;fill-rule:nonzero;stroke:none;stroke-width:1.97529"
         d="M 78.182659,-2596.3857 14.338361,159.19968 101.48455,2845.7432 165.32885,90.15784 Z M 33.948123,-224.84214 c 0.02054,0.51181 0.0341,1.97858 0.03769,4.72154 0.0057,4.36364 0.0091,1.88963 -0.01783,7.47964 -0.03565,3.38753 -0.04757,5.02562 -0.09755,7.82998 0.09198,5.20063 0.137538,10.62795 0.203538,16.91425 0.01635,4.87983 0.06283,14.32338 0.0158,20.14475 -0.0425,5.25892 -0.113044,10.8658 -0.207357,15.99406 -0.05663,3.07999 -0.144255,5.52623 -0.224312,7.48202 -0.25913,6.32967 -0.296073,5.41274 -0.5039,6.10092 -0.215262,-0.50457 -0.272159,0.0146 -0.452001,-3.29472 -0.06474,-1.19188 -0.120067,-2.87522 -0.174023,-4.57298 -0.06267,-1.97239 -0.12373,-4.02294 -0.175382,-6.43541 -0.08649,-4.0372 -0.16988,-11.32993 -0.230506,-16.08445 -0.04761,-6.7663 -0.101909,-11.14376 -0.08047,-19.33016 0.0084,-3.18982 0.0167,-6.45263 0.03857,-9.76695 -0.02873,-1.16725 -0.05591,-2.41823 -0.08555,-3.54667 -0.0095,-2.48934 -0.06296,-4.40409 -0.02867,-7.44962 0.06901,-6.1295 0.185214,-12.42826 0.313734,-17.85673 0.05151,-2.18061 0.125499,-2.56338 0.186764,-3.29981 0.231661,-2.77863 0.408155,-0.60433 0.57721,1.53807 0.07038,1.1368 0.144863,2.06959 0.211037,3.42087 0.0687,1.41323 0.132286,3.08176 0.19496,4.783 0.07671,2.0812 0.147279,4.09483 0.212809,6.32356 0.114143,-6.48551 0.22799,-12.5342 0.285439,-11.09528 z m -0.424472,9.57788 c -5e-4,-0.007 -8.52e-4,-0.006 -0.0013,-1.3e-4 -0.0169,0.15342 -0.03582,0.50969 -0.05319,0.93137 -0.0015,0.0354 -0.003,0.0708 -0.0044,0.10258 0.02019,-0.15723 0.04026,-0.30405 0.06115,-0.60673 0.0045,-0.0789 0.0013,-0.37462 -0.0023,-0.42827 z m -0.330799,26.86272 c -0.0055,0.0403 -0.0109,0.0812 -0.01644,0.12504 -0.06724,0.20033 -0.136779,0.581 -0.20183,0.58103 -0.07032,-0.002 -0.136938,-0.30298 -0.20326,-0.61023 -0.01446,-0.0672 -0.02741,-0.12412 -0.04077,-0.18952 0.0086,0.98483 0.01689,1.97862 0.02554,2.96274 0.04687,3.45788 0.129625,9.99156 0.193201,12.87773 0.03632,1.57941 0.08165,2.83085 0.125497,4.10577 0.0444,1.2877 0.08805,2.61298 0.140153,3.52883 0.07782,1.33588 0.144479,1.20618 0.233445,1.14509 -0.0026,-0.85102 0.0047,-2.10588 0.0013,-2.92529 -0.0086,-2.10105 -0.01606,-4.21981 -0.02435,-6.32752 -0.0488,-3.86178 -0.120354,-9.9368 -0.184371,-13.11968 -0.01437,-0.72255 -0.03049,-1.44414 -0.04811,-2.15553 z m 0.382605,22.35536 c -5.41e-4,-0.005 -9.32e-4,0.0117 -0.0019,0.0235 -0.02009,0.42365 -0.04069,1.3287 -0.06046,2.05195 0.03117,-0.0312 0.06218,-0.0271 0.09634,-0.51071 0.01735,-0.25283 -0.02302,-0.47482 -0.03192,-0.82193 -0.0031,-0.15483 0.0014,-0.70675 -0.0022,-0.74027 z" />
    </clipPath>
    <clipPath
       clipPathUnits="userSpaceOnUse"
       id="clipPath1876">
      <path
         id="path1878"
         style="fill:#ff0000;fill-opacity:1;fill-rule:nonzero;stroke:none;stroke-width:1.97529"
         d="M 155.46831,-1479.7566 13.989125,44.545489 23.849656,1614.454 165.32884,90.151923 Z M 36.629793,77.94258 c 0.0078,0.797233 -0.0071,2.250458 -0.05283,4.569051 -0.07275,3.688023 -0.02602,1.719528 -0.147357,5.815601 -0.08939,2.127954 -0.128242,3.254497 -0.219044,4.640691 -0.01674,5.958576 -0.07562,11.251667 -0.132963,17.625207 -0.07316,4.30757 -0.202548,12.91593 -0.344465,16.83388 -0.128217,3.53914 -0.285637,6.84958 -0.454085,9.33084 -0.101157,1.49049 -0.216525,1.89182 -0.316975,2.02923 -0.325123,0.44405 -0.339193,-0.98677 -0.522083,-4.23458 -0.167832,-4.36377 -0.223771,-4.98133 -0.312748,-10.99861 -0.03202,-2.16664 -0.04759,-4.56416 -0.06178,-6.94836 -0.01647,-2.76958 -0.03023,-5.57394 -0.02985,-8.50283 6.07e-4,-4.90234 0.06152,-12.421536 0.09609,-17.438503 0.08096,-6.430331 0.114037,-11.021592 0.276896,-17.351467 0.06346,-2.466417 0.128209,-4.99284 0.204974,-7.313579 -0.0029,-1.485754 -0.003,-3.011771 -0.0073,-4.482333 0.03638,-2.218476 0.02644,-4.771908 0.108636,-6.644082 0.165438,-3.767698 0.372631,-6.808676 0.574499,-8.908885 0.081,-0.845726 0.148551,0.197321 0.211932,0.71655 0.239555,1.968287 0.345922,6.992051 0.446745,11.85314 0.03763,2.224805 0.08225,4.357452 0.112617,6.681289 0.03135,2.421097 0.05396,4.957942 0.07524,7.504958 0.02607,3.116521 0.0483,6.065016 0.06257,9.097642 0.208817,-3.232102 0.40964,-6.110863 0.431289,-3.87514 z m -0.518545,0.07816 c -2.89e-4,-0.01486 -5.93e-4,-0.02056 -0.0011,-0.02429 -0.0166,-0.184038 -0.03846,-0.238621 -0.06021,-0.210938 -0.0018,0.0019 -0.0037,0.0038 -0.0054,0.0043 0.01937,0.241307 0.03846,0.488918 0.06099,0.623638 0.0051,0.01723 0.0077,-0.283552 0.0057,-0.394492 z m -0.748313,15.99201 c -0.0053,-0.06827 -0.01039,-0.133264 -0.01572,-0.198913 -0.05877,-1.069088 -0.122639,-2.032311 -0.176064,-3.225778 -0.05772,-1.291804 -0.107084,-2.761201 -0.1561,-4.230323 -0.01068,-0.320512 -0.02031,-0.604859 -0.03012,-0.903582 -0.01039,0.967059 -0.02124,1.93476 -0.03159,2.901782 -0.02286,3.69974 -0.07083,10.583838 -0.06983,14.120524 0.0018,1.96349 0.01682,3.8228 0.03021,5.67438 0.01361,1.8721 0.02594,3.76127 0.05249,5.46944 0.04021,2.52486 0.09725,3.64132 0.171399,5.22339 0.01293,-0.7474 0.04119,-1.64413 0.053,-2.37798 0.03024,-1.88279 0.06169,-3.76017 0.09228,-5.64324 0.02844,-4.06682 0.07747,-10.36878 0.08138,-14.157246 0.001,-0.857088 5.85e-4,-1.745371 -0.0013,-2.652941 z m -0.08245,25.37908 c -3.54e-4,-0.0142 -9.75e-4,-0.007 -0.0019,-0.0149 -0.02401,-0.0206 -0.057,0.34461 -0.08606,0.576 0.02616,0.54635 0.05155,1.11855 0.08818,1.34813 0.01874,0.11072 -0.01048,-0.81233 -0.01163,-1.2606 2.41e-4,-0.18314 0.01373,-0.5539 0.01132,-0.64838 z" />
    </clipPath>
    <clipPath
       clipPathUnits="userSpaceOnUse"
       id="clipPath1886">
      <path
         id="path1888"
         style="fill:#ff0000;fill-opacity:1;fill-rule:nonzero;stroke:none;stroke-width:0.219532"
         d="m 18.56015,105.91691 -4.173223,14.27982 17.549237,5.1287 4.173223,-14.27983 z m 6.043219,8.78702 c 0.02104,0.005 0.04818,0.0246 0.08301,0.0645 0.05539,0.0635 0.02887,0.0266 0.07477,0.11253 0.01368,0.0547 0.02419,0.0804 0.02055,0.1284 0.128361,0.0642 0.225416,0.13803 0.347513,0.22173 0.06926,0.0697 0.214137,0.20247 0.248068,0.29451 0.03064,0.0832 0.04485,0.17519 0.03605,0.26337 -0.0053,0.053 -0.04067,0.10075 -0.07629,0.14031 -0.115298,0.12801 -0.153095,0.11947 -0.297087,0.15752 -0.163436,0.0215 -0.198975,0.0368 -0.36942,0.0122 -0.06137,-0.009 -0.121613,-0.0262 -0.181025,-0.044 -0.06901,-0.0206 -0.137767,-0.0426 -0.203885,-0.0712 -0.110683,-0.0478 -0.257322,-0.14401 -0.357503,-0.20588 -0.114276,-0.0932 -0.205401,-0.1504 -0.285829,-0.27383 -0.03134,-0.0481 -0.06353,-0.0973 -0.08645,-0.149 -0.03473,-0.0133 -0.0693,-0.0281 -0.10424,-0.0407 -0.03617,-0.0354 -0.09777,-0.0564 -0.108441,-0.10585 -0.02146,-0.0995 -0.01039,-0.20789 0.01992,-0.30509 0.01209,-0.039 0.06173,-0.0546 0.09792,-0.0737 0.13689,-0.072 0.291561,-0.0637 0.440415,-0.0549 0.06484,0.007 0.130297,0.011 0.194583,0.022 0.06686,0.0116 0.132977,0.0276 0.19881,0.0442 0.08056,0.0203 0.155842,0.0405 0.229958,0.0645 0.0074,-0.11083 0.01967,-0.21519 0.0786,-0.20172 z m -0.198147,0.19805 c -4.47e-4,-3e-5 -6.94e-4,3e-5 -9.66e-4,1.8e-4 -0.01056,0.005 -0.02023,0.0123 -0.02798,0.0209 -6.68e-4,7.2e-4 -0.0013,10e-4 -0.002,0.002 0.01293,-0.005 0.02589,-0.01 0.03762,-0.0172 0.0023,-0.002 -0.0034,-0.006 -0.0067,-0.006 z m 0.07333,0.44 c -0.0036,10e-4 -0.007,0.003 -0.01056,0.004 -0.04685,0.012 -0.09326,0.0269 -0.140862,0.0357 -0.05148,0.009 -0.103757,0.0139 -0.155893,0.0183 -0.01137,9.6e-4 -0.02151,0.002 -0.03205,0.003 0.01787,0.0133 0.03559,0.0269 0.05347,0.0402 0.07489,0.0446 0.212154,0.12972 0.292558,0.16368 0.04512,0.0184 0.09298,0.0307 0.140033,0.0436 0.0476,0.013 0.0951,0.0267 0.143983,0.0331 0.07263,0.009 0.119879,-0.002 0.18426,-0.0145 -0.01193,-0.0122 -0.02132,-0.0316 -0.03337,-0.0433 -0.03094,-0.0298 -0.06129,-0.06 -0.0921,-0.0899 -0.08105,-0.0503 -0.204728,-0.13015 -0.288938,-0.16842 -0.019,-0.009 -0.03926,-0.0172 -0.06051,-0.0253 z m 0.542421,0.27779 c -4.57e-4,-1e-5 -5.45e-4,3e-4 -0.0011,5.9e-4 -0.0097,0.009 -0.01418,0.025 -0.02015,0.0383 0.02245,-0.005 0.04518,-0.009 0.0645,-0.0205 0.0097,-0.006 -0.02242,-0.004 -0.033,-0.008 -0.004,-0.002 -0.0072,-0.0106 -0.0103,-0.0106 z" />
    </clipPath>
    <clipPath
       clipPathUnits="userSpaceOnUse"
       id="clipPath2340">
      <path
         id="path2342"
         style="fill:#ff0000;fill-opacity:1;fill-rule:nonzero;stroke:none;stroke-width:0.219532"
         d="m 18.56015,105.91691 -7.164973,24.51691 23.080574,6.74521 7.164972,-24.51691 z m 3.999046,8.82841 c 0.07253,0.0212 0.126763,0.11512 0.09008,0.2604 -0.04771,0.18893 -0.08777,0.38176 -0.115664,0.57461 -0.0089,0.0617 -0.01555,0.1234 -0.02332,0.18527 -0.03503,0.27927 -0.04633,0.5609 -0.04866,0.84212 -5.34e-4,0.0563 7.7e-4,0.11234 0.0021,0.16858 0.0071,0.29961 -0.295719,0.30686 -0.302717,0.007 -0.0014,-0.0595 -0.0025,-0.11887 -0.0019,-0.17835 0.0025,-0.29305 0.01432,-0.5862 0.05088,-0.87721 0.0083,-0.0657 0.01552,-0.13176 0.02504,-0.19727 0.02985,-0.20523 0.07186,-0.40906 0.123297,-0.60991 l 4.21e-4,1.2e-4 c 0.03717,-0.14517 0.127958,-0.19669 0.200484,-0.17548 z m 2.16392,1.2761 c 0.06979,0.0535 0.18305,0.0765 0.209533,0.16041 0.01001,0.0317 0.01297,0.0592 0.01098,0.0832 0.0043,0.001 0.0075,0.002 0.0098,0.003 0.07958,0.0373 0.14384,0.10093 0.215712,0.15149 -0.01644,0.0515 -0.02012,0.10931 -0.04929,0.1549 -0.03194,0.0499 -0.142168,0.0755 -0.190473,0.0877 -0.04228,0.0107 -0.08531,0.0191 -0.127977,0.0283 0.173812,0.01 0.347599,0.0187 0.521493,0.0269 0.215146,0.008 0.474164,0.0191 0.689608,0.0233 0.09396,0.002 0.188199,0.002 0.282167,0.002 0.08517,4.3e-4 0.241212,0.002 0.342435,-8.8e-4 0.01443,-5.4e-4 0.02906,-0.002 0.04343,-0.003 l -1.24e-4,4.2e-4 c 0.298931,-0.0213 0.320554,0.28068 0.02162,0.30204 -0.01438,9.9e-4 -0.029,0.003 -0.04331,0.003 -0.125185,0.004 -0.23629,0.002 -0.365057,0.002 -0.0944,-5.3e-4 -0.188715,-6e-5 -0.283109,-0.002 -0.22335,-0.004 -0.475647,-0.0152 -0.698853,-0.0238 -0.305808,-0.0144 -0.611862,-0.0311 -0.917375,-0.051 -0.01561,-10e-4 -0.361294,-0.0245 -0.399447,-0.0287 -0.0392,-0.004 -0.07762,-0.0122 -0.116568,-0.0184 -0.07316,-0.0298 -0.21115,-0.0647 -0.159085,-0.20462 0.029,-0.078 0.125729,-0.1111 0.19898,-0.15046 0.04036,-0.0217 0.08951,-0.0192 0.134341,-0.0286 2.59e-4,-10e-5 0.01127,-0.002 0.01239,-0.003 -0.008,2e-5 -0.01448,-1.4e-4 -0.02185,-1.2e-4 -0.0208,0.002 -0.04151,0.004 -0.06235,0.005 -0.03239,0.002 -0.08161,0.0319 -0.09756,0.004 -7.46e-4,-0.001 -0.0016,-0.003 -0.0023,-0.004 -0.01141,0.001 -0.03331,0.0153 -0.03336,0.004 -2.07e-4,-0.0281 -5.93e-4,-0.0569 -4.87e-4,-0.0855 -0.0218,-0.0691 -0.02996,-0.14348 -0.03398,-0.21542 -8.91e-4,-0.0182 0.03517,-0.004 0.0531,-0.006 0.0058,-3.8e-4 0.01038,-3.8e-4 0.01586,-7.4e-4 0.0098,-0.0127 0.032,-0.008 0.05402,-0.003 0.02952,-9.6e-4 0.06136,-9.6e-4 0.09277,-0.001 0.02847,-0.003 0.05699,-0.005 0.08545,-0.008 -0.174408,-0.017 -0.349244,-0.0277 -0.524199,-0.0375 -0.03857,-0.002 -0.07724,-0.004 -0.115816,-0.006 -0.299357,-0.0143 -0.285169,-0.31656 0.01419,-0.30229 0.03945,0.002 0.07907,0.004 0.118525,0.006 0.242214,0.0136 0.484714,0.0284 0.725436,0.0597 0.07199,0.009 0.144059,0.0182 0.215312,0.0321 0.05901,0.0121 0.116976,0.0301 0.175482,0.0446 z m -3.149839,-0.76239 c 0.01927,0.004 0.01465,0.0242 0.0178,0.066 -0.0063,0.0247 -0.01237,0.0494 -0.01894,0.074 -0.01666,0.0625 -0.02305,0.0867 -0.02483,0.0928 0.0026,-0.0119 0.02356,-0.095 -0.03326,0.12162 -0.01362,0.0521 -0.02706,0.1044 -0.04041,0.1566 -0.01354,0.0526 -0.02724,0.10524 -0.03993,0.15808 -0.01307,0.0542 -0.02497,0.10847 -0.03732,0.16286 -0.03934,0.17287 -0.07002,0.34755 -0.0948,0.52309 -0.0091,0.0642 -0.01271,0.0971 -0.02022,0.15937 -0.0063,0.053 -0.01192,0.10636 -0.01628,0.15963 -0.0086,0.10562 -0.115063,0.0972 -0.106436,-0.009 0.0045,-0.0546 0.0097,-0.1093 0.01612,-0.1637 0.0077,-0.0634 0.0117,-0.0963 0.02094,-0.16184 0.02519,-0.17823 0.05645,-0.35601 0.09638,-0.53156 0.0071,-0.0314 0.01379,-0.063 0.02089,-0.0944 -0.01646,0.0149 -0.03498,0.0174 -0.04995,0.0104 -0.0016,0.004 -0.0027,0.007 -0.0045,0.0107 -0.0022,0.005 -0.0051,0.009 -0.0077,0.0125 -0.0024,0.0115 -0.0048,0.0235 -0.0071,0.035 -0.0019,0.009 -0.004,0.0185 -0.0058,0.0278 -0.01276,0.0616 -0.05471,0.079 -0.08224,0.0613 l -0.0049,0.0169 -0.0051,0.0173 -0.0055,0.0189 -0.0054,0.0185 -0.0058,0.0198 -0.007,0.0239 -0.0081,0.0276 c -0.02972,0.10171 -0.132202,0.0717 -0.102478,-0.0299 l 0.0081,-0.0276 0.007,-0.0239 0.0058,-0.0198 0.0054,-0.0185 0.0055,-0.0189 0.0051,-0.0173 0.005,-0.0173 0.0073,-0.0251 0.0085,-0.0292 0.0077,-0.0263 0.0081,-0.0276 8.44e-4,-0.003 c 0.0015,-0.006 0.0033,-0.0113 0.0049,-0.0169 9.86e-4,-0.003 0.002,-0.007 0.003,-0.0103 l 0.0016,-0.005 6.16e-4,-0.002 c 0.0056,-0.0191 0.0055,-0.0184 0.02155,-0.008 0.0035,-0.008 0.0071,-0.0152 0.01191,-0.0224 0.0038,-0.006 0.0066,-0.009 0.0096,-0.0146 0.0074,-0.01 0.01477,-0.0171 0.02728,-0.0215 0.0078,-0.036 0.01616,-0.0718 0.02514,-0.10746 0.01423,-0.0602 0.02825,-0.1203 0.03827,-0.18135 0.0088,-0.0539 0.04118,-0.0756 0.06809,-0.0694 l 1.23e-4,-4.2e-4 c 0.02528,0.006 0.04544,0.0362 0.03717,0.0868 -0.0016,0.0101 -0.0038,0.02 -0.0057,0.0301 0.02901,-0.0714 0.0598,-0.14185 0.09027,-0.21261 0.01953,-0.0446 0.0385,-0.0894 0.05836,-0.13394 0.004,-0.009 0.0027,-0.0239 0.01217,-0.0264 0.04581,-0.0113 0.07,-0.0167 0.08319,-0.0141 z m 3.373436,1.08102 c -0.0046,-8.9e-4 -0.02074,1.6e-4 -0.02423,0.005 -0.0015,0.002 -0.0027,0.005 -0.0043,0.007 0.0094,-0.003 0.01903,-0.007 0.02839,-0.01 0.0018,-6.2e-4 0.0015,-0.001 7.1e-5,-0.002 z m -0.981881,0.27367 c -0.0089,-0.001 -0.0206,0.003 -0.03845,0.009 0.01912,0.003 0.03811,0.007 0.05725,0.0105 -0.0057,-0.0129 -0.01118,-0.0185 -0.01879,-0.0198 z" />
    </clipPath>
    <clipPath
       clipPathUnits="userSpaceOnUse"
       id="clipPath2849">
      <path
         id="path2851"
         style="fill:#ff0000;fill-opacity:1;fill-rule:nonzero;stroke:none;stroke-width:0.348339"
         d="M 28.476006,-4.5183807 19.158676,146.08962 c 0.05986,-0.16413 0.122259,-0.32522 0.190348,-0.47949 0.183949,-0.30337 0.155613,-0.2989 0.346068,0.0192 0.05214,-0.13289 0.10952,-0.27534 0.125342,-0.29452 0.115706,-0.14047 0.249575,-0.23078 0.374044,-0.34637 0.0971,0.13453 0.212097,0.23674 0.299127,0.3884 0.171699,-0.69485 0.346053,-1.38688 0.524806,-2.07629 0.133097,-0.48964 0.118058,-0.57663 0.303219,-0.41368 0.0201,-0.46524 0.04035,-0.9307 0.06135,-1.39578 0.03003,-0.665 0.242318,-0.99744 0.42993,-0.97555 0.165538,0.0193 0.312054,0.31524 0.296735,0.90322 -0.0027,0.0948 -0.0046,0.19005 -0.0078,0.28492 -0.01518,0.4596 -0.03868,0.91852 -0.05844,1.37755 -0.03353,0.77769 -0.02617,0.59952 -0.02316,0.53321 0.04283,0.0266 0.08604,0.0517 0.129352,0.0736 -0.04219,0.72638 -0.120856,1.44525 -0.174371,2.16916 -0.0088,0.10579 -0.01723,0.21206 -0.02593,0.3179 0.29792,0.13786 0.279182,0.26078 0.26979,0.63172 -0.04055,0.61847 -0.09806,1.23412 -0.151893,1.84942 -0.04434,0.48321 -0.0892,0.96538 -0.139501,1.44683 -0.01536,0.14707 -0.0307,0.29529 -0.04785,0.44172 -0.01268,0.10821 0.0045,0.24727 -0.04222,0.32188 -0.155639,0.24862 -0.355409,0.3974 -0.533193,0.5958 -0.06832,-0.11729 -0.147914,-0.21758 -0.204976,-0.35191 -0.01752,-0.0412 -0.03112,-0.12428 -0.04134,-0.21201 -0.09581,-0.0216 -0.220408,-0.0623 -0.388046,-0.11988 -0.06136,-0.0211 -0.02089,-0.21563 -0.02188,-0.32454 -4.58e-4,-0.0369 0.0261,-0.48099 0.03245,-0.59837 -0.148748,0.002 -0.302436,0.004 -0.441481,-0.0642 -0.03934,0.13946 -0.07912,0.27857 -0.120387,0.41635 -0.09469,-0.0601 -0.191615,-0.11366 -0.287768,-0.16794 -0.0063,0.0115 -0.01302,0.0221 -0.02068,0.0313 -0.113391,0.13564 -0.256627,0.40136 -0.377508,0.28703 -0.175184,-0.16567 -0.190131,-0.60989 -0.285288,-0.91514 0.02601,-0.13382 0.05052,-0.26772 0.07747,-0.40094 0.02634,-0.13023 0.0555,-0.25946 0.08213,-0.38951 -0.131784,0.0125 -0.239594,-0.10351 -0.288701,-0.29723 l -3.910335,63.2079 148.500091,27.91298 13.36787,-216.081826 z M 40.490616,104.89046 c 0.632789,0.12375 0.981582,0.54292 1.064445,0.99 0.274885,0.0541 0.549751,0.10815 0.824643,0.16204 0.412145,0.0823 0.824292,0.16203 1.236596,0.24181 0.05004,0.01 0.09984,0.0206 0.149866,0.0306 0.01918,0.004 0.062,-0.0126 0.05816,0.0121 -0.07182,0.47824 -0.158758,0.9506 -0.246055,1.42327 0.02564,0.29548 0.04977,0.59184 0.07007,0.8876 0.0012,0.0174 -0.0263,-0.006 -0.03964,-0.009 -0.04822,-0.0103 -0.09634,-0.0199 -0.14457,-0.0296 -0.01289,-0.003 -0.02595,-0.005 -0.03881,-0.007 -0.0015,0.009 -0.0038,0.0173 -0.0053,0.026 -0.87611,-0.0896 -1.752386,-0.14985 -2.62858,-0.22296 -0.07816,0.66721 -0.173706,1.32964 -0.263436,1.9928 -0.180998,1.1836 -0.415397,2.34672 -0.680446,3.49541 -0.103213,0.42185 -0.171637,0.7152 -0.26341,0.88127 -0.131752,0.50831 -0.337478,0.98298 -0.565934,1.41361 -0.04677,0.0882 -0.09627,0.17284 -0.146279,0.25773 0.466096,0.067 0.93274,0.13481 1.398786,0.20306 1.187734,0.17308 2.21376,0.31882 3.405187,0.51213 0.568301,0.0925 1.136929,0.19225 1.70496,0.28994 0.08916,0.0162 0.178316,0.0323 0.267526,0.0479 0.352789,-0.29196 0.712261,-0.38755 1.180397,-0.22062 0.737416,0.26527 1.462088,0.60727 2.203062,0.85308 0.07284,0.0255 0.08228,0.0288 0.136297,0.0479 0.557723,0.12166 1.114348,0.25724 1.666511,0.43531 0.131898,0.0902 0.398546,0.0791 0.395694,0.2704 -0.01072,0.73028 -0.145941,1.48038 -0.430695,2.08459 -0.08972,0.19024 -0.349182,-0.027 -0.522857,-0.0619 -0.171457,-0.0352 -0.340605,-0.0964 -0.510345,-0.14875 -0.41306,-0.12638 -0.582214,-0.18746 -0.907043,-0.30196 -0.278853,-0.0591 -0.557816,-0.11513 -0.83657,-0.17131 -0.419108,-0.0836 -0.838315,-0.16749 -1.257772,-0.24579 -0.08651,-0.0159 -0.173057,-0.0307 -0.259583,-0.0464 0.622763,0.47038 0.599139,0.54202 0.215748,1.1157 -0.421591,0.65148 -0.821653,1.32805 -1.247833,1.97442 -0.192068,0.30289 -0.382442,0.60638 -0.569038,0.91537 -0.03091,0.0512 -0.04558,0.18782 -0.09174,0.15529 -0.273899,-0.1931 -0.504376,-0.33619 -0.701565,-0.44878 0.01982,0.14873 -0.02646,0.2991 -0.06199,0.43906 -0.121585,0.47893 -0.235224,0.60151 -0.464679,0.98897 -0.304706,0.45642 -0.644774,0.87211 -1.004921,1.2513 -0.06323,0.0666 -0.12068,0.1447 -0.192391,0.19506 -0.132471,0.0929 -0.277311,0.15345 -0.415973,0.2305 -0.688193,-0.0142 -0.715087,0.11539 -1.103017,-0.92918 l -9.04e-4,-1.7e-4 c -0.454189,0.32537 -0.894842,0.6796 -1.305021,1.09511 -0.04557,0.0428 -0.09302,0.082 -0.136477,0.1281 -0.02945,0.0312 -0.04958,0.13652 -0.08145,0.10442 -0.0013,-8.5e-4 -0.0025,-0.003 -0.0043,-0.004 -0.243542,0.39803 -0.28851,0.17223 -0.72485,-0.67852 -0.383881,-0.32815 -0.600053,-0.45853 -0.693267,-0.55403 -0.705062,0.13199 -1.414226,0.24001 -2.131255,0.26608 -0.411821,0.0148 -0.695835,0.0512 -1.099,-0.2582 -0.174778,-0.13411 -0.301657,-0.35901 -0.447276,-0.5477 -0.02976,0.006 -0.05943,0.0117 -0.08923,0.0138 -0.0833,0.24582 -0.165581,0.48608 -0.25921,0.7412 -0.268814,0.73252 -0.554903,1.44314 -0.842054,2.154 -0.247084,0.59707 -0.498598,1.18815 -0.753451,1.77508 0.508646,0.87713 0.393241,1.19013 -0.100063,1.69134 -0.139454,0.14141 -0.347261,-0.0562 -0.480558,0.10567 -0.08738,0.0129 -0.174474,0.0236 -0.261956,0.0353 -0.03351,0.0518 -0.06879,0.0991 -0.108451,0.1369 0.08642,4.4e-4 0.172489,1.5e-4 0.252457,0.003 0.261631,0.006 0.52373,0.011 0.784835,0.0407 0.150537,0.0167 0.334616,-0.073 0.449179,0.0986 0.267024,0.3985 0.508365,0.90783 0.615641,1.49134 0.03582,0.19485 -0.179042,0.26276 -0.268987,0.39427 -0.07372,0.041 -0.146264,0.0937 -0.221833,0.12264 -0.185981,0.0712 -0.570076,0.12307 -0.735003,0.1494 -0.628499,0.10043 -1.257459,0.19155 -1.886954,0.27093 -0.02352,0.003 -0.04664,0.005 -0.07012,0.008 0.01007,0.001 0.02031,0.003 0.03007,0.004 0.556974,0.0958 0.605754,0.9792 -0.102023,1.17334 -0.04772,0.0961 -0.113467,0.14662 -0.193819,0.17484 -0.04835,0.10773 -0.10371,0.23168 -0.168887,0.3779 -0.03647,0.0826 -0.147406,-0.0235 -0.220975,-0.0355 -0.18576,-0.0301 -0.367888,-0.0637 -0.553715,-0.097 -0.271457,-0.0486 -0.542514,-0.0984 -0.813896,-0.14817 -0.05956,-0.0109 -0.119791,-0.0195 -0.17921,-0.0325 -0.02995,-0.006 -0.08842,0.0137 -0.08855,-0.026 -0.0016,-0.38818 0.0557,-0.76807 0.08375,-1.15212 0.0479,-4.9e-4 0.0959,-7.3e-4 0.143794,-0.001 0.0018,-0.008 0.0046,-0.0148 0.0067,-0.0222 -0.380249,0.0304 -0.760701,0.056 -1.140209,0.10494 -0.08294,0.0106 -0.165375,0.0282 -0.248124,0.0426 l 8.3e-4,0.001 c -0.155869,0.0271 -0.290465,0.008 -0.402492,-0.0451 -0.453855,0.54982 -0.965679,-0.19533 -0.601339,-1.46283 0.139963,-0.4869 0.27489,-0.97745 0.409558,-1.46883 0.0012,-0.005 0.003,-0.0113 0.0047,-0.0167 -0.02577,-0.32779 0.05984,-0.74119 0.306557,-1.13137 0.03453,-0.12378 0.06741,-0.24889 0.101626,-0.37293 -0.150987,-0.14633 -0.301795,-0.29282 -0.407692,-0.52382 -0.08261,-0.18022 -0.03979,-0.46102 -0.02868,-0.69087 0.01142,-0.23636 0.05718,-0.46333 0.09542,-0.69099 0.108865,-0.64828 0.292877,-1.2453 0.467591,-1.84408 0.234583,-0.72768 0.496519,-1.42888 0.772428,-2.11073 0.04603,-0.11376 0.0891,-0.23118 0.139684,-0.33878 0.05122,-0.10912 0.109712,-0.20738 0.164724,-0.31059 0.164903,-0.0724 0.326563,-0.22753 0.494129,-0.22404 -4.08e-4,-0.023 -3.92e-4,-0.0454 -0.0011,-0.0683 0.0098,-0.0616 0.01168,-0.12969 0.02937,-0.18581 0.04463,-0.14289 0.09111,-0.28843 0.155462,-0.40623 0.05454,-0.0999 0.127249,-0.16297 0.194836,-0.23451 0.173875,-0.18434 0.38345,-0.22814 0.579975,-0.28419 0.09046,-0.006 0.181411,-0.006 0.271702,-0.005 0.0393,-0.0383 0.07959,-0.0742 0.120847,-0.10639 0.04362,-0.0277 0.08674,-0.0605 0.131098,-0.0845 0.108987,-0.0589 0.222128,-0.0766 0.335331,-0.0813 0.06484,-0.16646 0.130963,-0.33442 0.191879,-0.48977 0.0076,-0.0193 0.01684,-0.0366 0.02564,-0.0539 -0.566162,0.32077 -1.132269,0.64514 -1.699337,0.96113 -0.113602,0.0633 -1.024766,0.5616 -1.196749,0.64362 -0.101686,0.0486 -0.205399,0.0804 -0.308288,0.12046 -0.15601,-0.0755 -0.404618,0.0332 -0.468045,-0.22648 -0.342306,-1.40135 0.0782,-1.5507 0.568674,-1.99175 0.178842,-0.16083 0.361937,-0.30951 0.545023,-0.45508 0.540316,-0.42953 1.172518,-0.88947 1.716195,-1.29131 0.750049,-0.54771 1.502303,-1.08849 2.25256,-1.63533 0.07522,-0.26165 0.152006,-0.52178 0.22871,-0.78214 -0.0513,-0.0518 -0.09603,-0.11486 -0.129086,-0.19329 -0.07762,-0.18417 -0.150237,-0.4055 -0.150923,-0.63401 -7.11e-4,-0.24339 0.09789,-0.45573 0.146745,-0.6837 0.144172,-0.25685 0.321798,-0.43866 0.52295,-0.51675 0.0016,-0.20862 0.05922,-0.42383 0.206398,-0.71005 0.03377,-0.0657 0.08863,-0.0799 0.137158,-0.11037 -0.03346,-0.17351 -0.06157,-0.35651 -0.103287,-0.5382 0.02007,-0.11094 0.03552,-0.22402 0.05639,-0.33449 -0.254318,-0.3054 -0.428195,-0.85089 -0.362756,-1.63981 0.04574,-0.55163 0.09524,-1.10352 0.1689,-1.64787 0.09836,-0.71937 0.207851,-1.43644 0.374534,-2.1292 0.07979,-0.28644 0.149702,-0.57354 0.269505,-0.8355 0.243695,-0.5329 0.527924,-0.84804 0.964724,-1.09217 0.10186,-0.0569 0.21488,-0.0771 0.322264,-0.1155 0.13815,-0.0342 0.274676,-0.0776 0.414326,-0.10287 0.366408,-0.0663 0.645481,-0.0711 1.020646,-0.0769 0.06612,-0.001 0.132058,-3e-4 0.198195,-3.1e-4 -0.06497,-0.26368 -0.113467,-0.53197 -0.142348,-0.80142 -0.01886,-0.17614 0.56181,-0.27591 0.660473,-0.28666 0.116941,-0.0128 0.235006,-0.01 0.352631,-0.0147 1.128144,-0.007 2.260336,0.0789 3.390393,0.203 0.05465,0.006 0.107387,0.0129 0.158385,0.0227 z m -2.127813,3.29849 c -0.0317,-0.002 -0.06339,-0.005 -0.09506,-0.007 0.01082,0.0216 0.02266,0.043 0.03169,0.0647 0.02094,-0.02 0.04188,-0.0394 0.06336,-0.0573 z m -3.973223,6.02915 c -0.01374,0.0433 -0.02766,0.0859 -0.04016,0.12978 -0.01131,0.0396 0.02841,-0.0751 0.04268,-0.11287 -9.88e-4,-0.006 -0.0016,-0.0109 -0.0026,-0.0169 z m -1.931468,1.27901 c -0.01642,0.002 -0.0179,0.0182 0.0041,0.0348 7.09e-4,-0.004 0.0018,-0.007 0.0025,-0.0101 -0.0022,-0.008 -0.0037,-0.0165 -0.0056,-0.0246 z m 12.055281,4.13575 c -0.31203,-0.0538 -0.624277,-0.10731 -0.936454,-0.15842 -1.18679,-0.1926 -2.20932,-0.33871 -3.392763,-0.51096 -0.251035,-0.0365 -0.501917,-0.0723 -0.75296,-0.10865 0.05394,0.12772 0.09655,0.26059 0.121605,0.40079 0.113556,0.63553 -0.178398,0.95215 -0.427315,1.29412 -0.673064,0.86408 -1.405219,1.64399 -2.10428,2.47075 -0.159255,0.18954 -0.468963,0.55317 -0.67255,0.81374 0.404573,-0.0457 0.807383,-0.11263 1.208608,-0.18599 0.658738,-0.14897 1.25351,-0.27761 1.908952,-0.4534 0.321725,-0.0863 0.641978,-0.18221 0.961681,-0.27816 0.0097,-0.003 0.01941,-0.006 0.0291,-0.009 0.01317,-0.009 0.02612,-0.0196 0.03927,-0.029 1.202164,-0.88616 2.425452,-1.72267 3.63867,-2.58374 0.02298,-0.0168 0.125116,-0.0917 0.178594,-0.13075 0.04503,-0.11913 0.09086,-0.23778 0.135466,-0.35718 0.02235,-0.0598 0.04279,-0.11614 0.06436,-0.17453 z m -7.918278,-0.40266 c -0.02316,0.0204 -0.04655,0.0396 -0.06901,0.0622 0.0078,-0.002 0.01616,-0.004 0.0236,-0.006 0.01629,-0.004 0.03025,-0.0295 0.05064,-0.0539 -8.92e-4,-3.5e-4 -0.0044,-0.002 -0.0052,-0.002 z m 0.416872,0.17343 c -0.05375,0.2269 -0.118774,0.44591 -0.196178,0.66032 0.157054,-0.17869 0.313484,-0.35788 0.468145,-0.53995 -0.07386,-0.0335 -0.16592,-0.0734 -0.271967,-0.12037 z m 6.213681,5.07064 c -0.007,-0.002 -0.01398,-0.003 -0.02051,-2.5e-4 -0.0047,0.002 -0.01732,0.007 -0.02381,0.01 0.02156,-0.002 0.04386,-0.002 0.06439,-0.002 -0.0069,-0.001 -0.01325,-0.003 -0.02021,-0.005 z m -7.894858,-0.62245 c -0.03202,-0.002 -0.07392,0.008 -0.102896,0.0182 4.81e-4,0.007 -0.0014,0.0151 -0.0014,0.022 0.06677,0.007 0.133866,0.007 0.200556,0.005 -0.02384,-0.0166 -0.04842,-0.0322 -0.07424,-0.0409 -0.0061,-0.002 -0.01344,-0.004 -0.02205,-0.004 z m -8.678552,5.16232 c 0.02578,0.0458 0.03187,0.0633 0.05843,0.0368 -0.0195,-0.012 -0.03893,-0.0246 -0.05843,-0.0368 z m 6.170913,3.40998 c -0.02781,0.0329 -0.04769,0.0557 -0.06928,0.0809 0.02934,1.1e-4 0.03369,-0.009 0.06928,-0.0809 z m -2.865472,2.26427 c -0.100542,0.0116 -0.201635,0.0211 -0.301952,0.0325 0.02758,0.007 0.05505,0.0139 0.08258,0.0215 0.07333,-0.017 0.146712,-0.0338 0.219365,-0.0538 z m -1.813365,0.22137 c -0.0032,-8e-5 -0.0072,0.001 -0.009,0.002 l -7.3e-5,0.001 c 0.005,9.7e-4 0.01,0.002 0.015,0.003 -1.8e-5,-6.1e-4 1.6e-4,-0.002 1.47e-4,-0.002 -1.1e-5,-0.003 -0.0025,-0.003 -0.006,-0.004 z m -2.291864,7.94148 c 0.209393,0.0363 0.453816,0.20845 0.69277,0.56215 0.308708,0.45692 0.616476,0.91464 0.92379,1.3732 0.227432,-0.29056 0.436629,-0.6147 0.712905,-0.81672 0.07274,-0.0531 0.155876,0.11458 0.217166,0.1981 0.128902,0.17543 0.351089,0.62711 0.456545,0.84522 0.177099,0.36627 0.445761,0.94537 0.616185,1.30952 0.08767,0.18919 0.17481,0.37859 0.262124,0.56806 0.334909,-0.29367 0.425606,-0.1837 0.688465,0.24208 0.318102,0.5859 0.60749,1.19591 0.879245,1.81907 0.215868,0.5081 0.426672,1.01522 0.607858,1.54504 0.02221,0.065 0.04489,0.13325 0.06786,0.20173 0.0054,0.006 0.01043,0.0124 0.01583,0.0182 0.28926,0.31619 0.577286,0.6335 0.868019,0.94722 0.556057,0.60008 1.115309,1.19579 1.67361,1.79232 0.09528,-0.0539 0.189799,-0.10692 0.308948,-0.17433 0.07009,-0.0395 0.124022,0.13513 0.184609,0.20489 0.272707,0.31446 0.324522,0.39066 0.611519,0.74994 0.135118,0.16915 0.27071,0.33832 0.406049,0.50708 0.442599,0.54543 0.890486,1.08533 1.324924,1.64227 0.101891,0.13063 0.483459,0.63824 0.566511,0.7849 0.03115,0.055 0.05767,0.11314 0.08304,0.17289 0.209602,0.26362 0.338883,0.4451 0.442495,0.5961 0.07314,0.0704 0.147074,0.15505 0.221595,0.25645 0.0037,0.006 0.0076,0.0109 0.01147,0.0162 0.06988,0.0392 0.125836,0.0809 0.100192,0.1409 0.0092,0.0131 0.01867,0.0263 0.02792,0.0393 0.04236,0.0334 0.106054,0.0648 0.0903,0.11322 -6.26e-4,0.003 -0.0012,0.005 -0.0023,0.008 -0.04646,0.14221 -0.09679,0.2822 -0.150076,0.42017 0.04045,0.24844 0.113692,0.5095 0.02407,0.70759 -0.246283,0.54415 -0.489855,0.43895 -0.790116,0.36205 -0.295908,-0.0761 -0.364735,-0.21813 -0.316994,-0.38822 -0.02422,-0.0238 -0.04856,-0.0484 -0.07325,-0.0713 -0.286609,-0.26551 -0.582549,-0.51272 -0.870623,-0.77517 -0.313406,-0.28377 -0.452819,-0.40588 -0.760907,-0.70172 -0.125092,-0.11999 -0.251079,-0.23962 -0.372828,-0.36585 -0.01834,-0.019 -0.03584,-0.0383 -0.0536,-0.057 -0.202482,0.16675 -0.520806,0.18973 -0.916128,-0.083 -0.146316,-0.10111 -0.06952,-0.0438 -0.22955,-0.17109 -0.663873,-0.58847 -1.287001,-1.25908 -1.927169,-1.89279 -0.02681,0.0323 -0.05356,0.0643 -0.07925,0.0978 -0.07022,-0.0489 -0.143674,-0.0895 -0.210546,-0.14639 -0.173836,-0.14787 -0.321784,-0.3371 -0.464167,-0.53444 -0.05607,-0.0777 -0.110419,-0.15659 -0.164809,-0.23638 -0.414105,-0.37293 -0.825314,-0.75176 -1.233961,-1.13572 -0.05103,-0.0331 -0.104,-0.0661 -0.152768,-0.0991 -0.153992,-0.10433 -0.302143,-0.22416 -0.453211,-0.33637 -0.06029,-0.0656 -0.118561,-0.12545 -0.175311,-0.18202 -0.01485,-0.005 -0.02971,-0.0104 -0.04457,-0.0154 -0.273436,-0.099 -0.547446,-0.1995 -0.820444,-0.3021 0.07674,0.19756 0.12007,0.40825 0.0572,0.69152 l -7.4e-5,0.001 c -0.234855,1.05819 -0.805561,0.80906 -0.730035,-0.11847 -0.01264,-0.0261 -0.02512,-0.0535 -0.04105,-0.0723 -0.04076,-0.0482 -0.08745,-0.0777 -0.131109,-0.11737 -0.07272,-0.0661 -0.145329,-0.13397 -0.217902,-0.20059 -0.227205,-0.19681 -0.465163,-0.35056 -0.698883,-0.52104 -0.05805,-0.0424 -0.114854,-0.0868 -0.172149,-0.13213 -0.04266,-0.0337 -0.09342,-0.0487 -0.127412,-0.10494 -0.07825,-0.12942 -0.134671,-0.29386 -0.202169,-0.44059 0.01244,-0.0444 0.02388,-0.0898 0.03516,-0.13541 -0.06407,-0.0244 -0.136739,-0.0508 -0.415015,-0.16017 -0.252692,-0.0992 -0.505078,-0.19843 -0.755398,-0.31453 -0.03657,-0.0198 -0.07675,-0.0281 -0.110584,-0.0595 -0.341061,-0.31556 -0.253079,-0.42089 0.102192,-1.26251 0.01731,-0.0412 0.04664,-0.0372 0.07907,-0.0227 0.009,-0.1895 0.02021,-0.37841 0.02622,-0.56785 0.04902,-0.005 0.09825,-0.0162 0.147379,-0.0157 9.15e-4,-1e-5 0.005,-2.7e-4 0.0063,-3e-5 0.01185,-0.0896 0.03769,-0.18667 0.07445,-0.30878 0.07492,-0.26328 0.147865,-0.52851 0.219652,-0.79442 -0.0026,-0.003 -0.0049,-0.007 -0.0074,-0.0108 -0.03855,-0.0876 -0.08469,-0.16732 -0.115812,-0.26356 -0.02188,-0.0675 -0.03461,-0.1446 -0.04076,-0.22129 -0.0013,-0.0155 0.0016,-0.026 7.07e-4,-0.041 -0.228747,-0.26062 -0.456104,-0.52405 -0.681345,-0.79005 -0.192339,-0.22719 -0.380941,-0.45982 -0.57151,-0.68961 -0.413899,-0.49892 -0.816684,-1.01502 -1.203856,-1.55026 -0.08157,-0.11271 -0.172982,-0.21545 -0.241275,-0.34231 -0.07125,-0.1324 -0.232111,-0.29585 -0.172595,-0.42799 0.187537,-0.41626 0.537898,-0.65345 0.806906,-0.97981 0.224857,0.20632 0.457634,0.3975 0.674037,0.61967 0.211382,0.21705 1.300408,1.48785 1.478275,1.6887 0.161076,0.18197 0.473049,0.52856 0.810901,0.90362 -0.310973,-0.46406 -0.622929,-0.927 -0.935281,-1.38946 l 1.47e-4,-0.002 c -0.610572,-0.904 -0.30557,-1.69654 0.229537,-1.60361 z m 2.648616,1.57299 c -0.0012,-0.003 -7.56e-4,-0.003 -1.51e-4,0.002 0.0033,0.0198 0.01086,0.0388 0.01882,0.0564 l 0.002,-0.002 c -0.0053,-0.0134 -0.01671,-0.0483 -0.02058,-0.0567 z m -6.732227,6.1972 c 0.0023,0.0221 0.0042,0.044 0.0066,0.0658 0.002,0.0191 0.004,-0.0428 -0.0027,-0.058 -0.0012,-0.003 -0.0029,-0.005 -0.0041,-0.008 z m 17.10464,7.83961 c 0.0078,0.0107 0.01505,0.022 0.02299,0.0325 -0.008,-0.0115 -0.01531,-0.0237 -0.02299,-0.0325 z m -1.167639,0.93783 c 0.0045,0.0368 0.0092,0.0745 0.01354,0.11288 0.01048,-0.0209 0.02236,-0.0423 0.03521,-0.0638 -0.01608,-0.0164 -0.03383,-0.0375 -0.04874,-0.0491 z" />
    </clipPath>
  </defs>
  <g
     inkscape:label="Vrstva 1"
     inkscape:groupmode="layer"
     id="layer1">
    <text
       xml:space="preserve"
       style="font-style:normal;font-variant:normal;font-weight:normal;font-stretch:normal;font-size:14.3926px;font-family:'Myanmar Text';-inkscape-font-specification:'Myanmar Text';text-align:end;text-anchor:end;fill:#000015;fill-opacity:1;stroke:none;stroke-width:1.45342;stroke-opacity:1"
       x="22.056892"
       y="150.33669"
       id="text2907"
       transform="scale(1.0728793,0.93207134)"><tspan
         sodipodi:role="line"
         id="tspan2905"
         style="font-style:normal;font-variant:normal;font-weight:normal;font-stretch:normal;font-family:'Myanmar Text';-inkscape-font-specification:'Myanmar Text';stroke:none;stroke-width:1.45342;stroke-opacity:1"
         x="22.056892"
         y="150.33669" /></text>
    <ellipse
       style="fill:#000000;stroke:#000000;stroke-width:1.57384"
       id="path415"
       cx="127.36152"
       cy="208.62413"
       rx="48.511745"
       ry="49.001724" />
    <g
       id="g1758"
       transform="matrix(1.9906241,-0.58175222,0.58175222,1.9906241,-84.860888,12.492414)"
       style="fill:#000000;fill-opacity:1;stroke:#c5ccca;stroke-opacity:1"
       clip-path="url(#clipPath2340)">
      <path
         style="fill:#000000;fill-opacity:1;stroke:#c5ccca;stroke-width:1.14;stroke-opacity:1"
         id="path1567"
         d="m 19.038818,108.57743 c -0.04042,0.40485 -0.04843,0.81426 -0.121259,1.21455 -0.376324,2.06853 -1.013279,4.24281 -1.563275,6.24611 -1.096921,3.99543 -2.208701,7.98692 -3.308645,11.98154 0,0 2.6209,1.41951 2.6209,1.41951 v 0 c 0.763332,-3.19883 1.060616,-4.61122 2.005376,-7.84083 0.404762,-1.38365 0.835713,-2.75999 1.295785,-4.12625 0.804561,-2.38928 1.78126,-4.71474 2.588076,-7.10265 0,0 -3.516958,-1.79198 -3.516958,-1.79198 z" />
      <path
         style="fill:#000000;fill-opacity:1;stroke:#c5ccca;stroke-width:1.14;stroke-opacity:1"
         id="path1569"
         d="m 22.034288,112.0592 c 1.23743,-0.5381 2.48737,-1.15211 3.820092,-1.4236 0.246963,-0.0503 0.499506,-0.0677 0.74926,-0.10153 0.934106,-0.0259 1.835919,0.21146 2.688177,0.58499 0.359889,0.15774 1.398212,0.71793 1.048427,0.5389 -2.465197,-1.26175 -2.733373,-1.62948 -1.282158,-0.33452 0.221213,0.2925 0.474719,0.56317 0.663636,0.8775 0.453904,0.75522 0.805074,1.78649 0.748779,2.68258 -0.04485,0.71391 -0.229928,0.94499 -0.530656,1.57564 -0.21726,0.24114 -0.402524,0.51553 -0.65178,0.72344 -1.832745,1.52869 -4.607288,1.89258 -6.882534,2.22173 -1.172095,0.14177 -2.351445,0.16188 -3.530016,0.17023 0,0 3.034615,2.19111 3.034615,2.19111 v 0 c 1.147486,-0.0608 2.295402,-0.12875 3.433729,-0.29533 2.337537,-0.39247 5.227977,-0.81659 7.126971,-2.35672 0.281882,-0.22861 0.49366,-0.53216 0.740492,-0.79823 0.317133,-0.65321 0.558983,-1.00137 0.62747,-1.74462 0.08225,-0.89258 -0.313245,-2.12666 -0.724588,-2.89844 -0.180067,-0.33785 -0.428365,-0.63464 -0.642548,-0.95197 -1.946267,-1.83696 -0.896385,-0.95612 -5.005173,-3.35819 -0.930127,-0.54376 -2.058029,-0.93761 -3.136603,-1.02513 -0.276128,-0.0224 -0.553962,0.0111 -0.830943,0.0166 -0.254816,0.0479 -0.512413,0.0828 -0.764448,0.1436 -1.355193,0.32709 -2.596958,1.003 -3.935337,1.38439 0,0 3.235136,2.17756 3.235136,2.17756 z"
         clip-path="url(#clipPath1886)" />
      <path
         style="fill:#000000;fill-opacity:1;stroke:#c5ccca;stroke-width:1.14;stroke-opacity:1"
         id="path1571"
         d="m 16.941869,120.37439 c 0.137088,0.20977 0.284063,0.41341 0.411265,0.62932 1.068677,1.81394 0.706916,1.39924 1.974541,3.62465 1.075772,1.8886 2.061647,3.58223 3.544441,5.19745 0.700426,0.76299 1.532796,1.39338 2.299193,2.09007 2.940942,1.98865 3.276196,2.35774 7.31306,4.06351 0.628851,0.26572 1.332593,0.29739 1.99889,0.44608 0,0 -2.758173,-2.09856 -2.758173,-2.09856 v 0 c -0.626348,-0.14159 -1.255082,-0.57653 -1.879047,-0.42477 -0.310835,0.0756 0.415026,0.48691 0.622539,0.73037 -0.788869,-0.50748 -1.577737,-1.01496 -2.366606,-1.52244 -0.780362,-0.68141 -1.630592,-1.29024 -2.341083,-2.04421 -1.452494,-1.54139 -2.430164,-3.19477 -3.390742,-5.05957 -0.670766,-1.30218 -0.961415,-2.19691 -1.534574,-3.45468 -0.09073,-0.1991 -0.199574,-0.38944 -0.299361,-0.58416 0,0 -3.594343,-1.59306 -3.594343,-1.59306 z" />
    </g>
  </g>
</svg>
